<?xml version="1.0" encoding="utf-8"?>
<svg xmlns="http://www.w3.org/2000/svg" id="Layer_1" style="enable-background:new 0 0 48 48;" version="1.1" viewBox="0 0 48 48" x="0px" y="0px">
<style type="text/css">
	.st0{fill:#FFFFFF;}
</style>
<path class="st0" d="M8,10v8h2v-6.6l6.3,6.3l1.4-1.4L11.4,10H18V8h-8C8.9,8,8,8.9,8,10z"/>
<path class="st0" d="M38,8h-8v2h6.6l-6.3,6.3l1.4,1.4l6.3-6.3V18h2v-8C40,8.9,39.1,8,38,8z"/>
<path class="st0" d="M38,36.6l-6.3-6.3l-1.4,1.4l6.3,6.3H30v2h8c1.1,0,2-0.9,2-2v-8h-2V36.6z"/>
<path class="st0" d="M17.7,31.7l-1.4-1.4L10,36.6V30H8v8c0,1.1,0.9,2,2,2h8v-2h-6.6L17.7,31.7z"/>
</svg>