<?xml version="1.0" encoding="utf-8"?>
<svg xmlns="http://www.w3.org/2000/svg" id="Layer_1" style="enable-background:new 0 0 48 48;" version="1.1" viewBox="0 0 48 48" x="0px" y="0px">
<style type="text/css">
	.st0{fill:#FFFFFF;}
</style>
<path class="st0" d="M34,32c-1.8,0-3.6,0.6-5,1.8c-1.4-1.1-3.2-1.8-5-1.8s-3.6,0.6-5,1.8c-1.4-1.1-3.2-1.8-5-1.8c-4.4,0-8,3.6-8,8h2&#xD;&#xA;	c0-3.3,2.7-6,6-6c1.6,0,3.1,0.6,4.3,1.8l0.7,0.7l0.7-0.7c1.1-1.2,2.7-1.8,4.3-1.8s3.1,0.6,4.3,1.8l0.7,0.7l0.7-0.7&#xD;&#xA;	c1.1-1.2,2.7-1.8,4.3-1.8c3.3,0,6,2.7,6,6h2C42,35.6,38.4,32,34,32z"/>
<path class="st0" d="M14,10c1.6,0,3.1,0.6,4.3,1.8l0.7,0.7l0.7-0.7c1.1-1.2,2.7-1.8,4.3-1.8s3.1,0.6,4.3,1.8l0.7,0.7l0.7-0.7&#xD;&#xA;	c1.1-1.2,2.7-1.8,4.3-1.8c3.3,0,6,2.7,6,6h2c0-4.4-3.6-8-8-8c-1.8,0-3.6,0.6-5,1.8C27.6,8.6,25.8,8,24,8s-3.6,0.6-5,1.8&#xD;&#xA;	C17.6,8.6,15.8,8,14,8c-4.4,0-8,3.6-8,8h2C8,12.7,10.7,10,14,10z"/>
<path class="st0" d="M34,20c-1.8,0-3.6,0.6-5,1.8c-1.4-1.1-3.2-1.8-5-1.8s-3.6,0.6-5,1.8c-1.4-1.1-3.2-1.8-5-1.8c-4.4,0-8,3.6-8,8h2&#xD;&#xA;	c0-3.3,2.7-6,6-6c1.6,0,3.1,0.6,4.3,1.8l0.7,0.7l0.7-0.7c1.1-1.2,2.7-1.8,4.3-1.8s3.1,0.6,4.3,1.8l0.7,0.7l0.7-0.7&#xD;&#xA;	c1.1-1.2,2.7-1.8,4.3-1.8c3.3,0,6,2.7,6,6h2C42,23.6,38.4,20,34,20z"/>
</svg>