<?xml version="1.0" encoding="utf-8"?>
<!-- Generator: Adobe Illustrator 25.0.0, SVG Export Plug-In . SVG Version: 6.00 Build 0)  -->
<svg version="1.1" id="Layer_3" xmlns="http://www.w3.org/2000/svg" xmlns:xlink="http://www.w3.org/1999/xlink" x="0px" y="0px"
	 viewBox="0 0 1128 1030" style="enable-background:new 0 0 1128 1030;" xml:space="preserve">
<style type="text/css">
	.st0{fill:#1B3D6D;}
	.st1{fill:none;stroke:#ECECEC;stroke-width:2;}
	.st2{fill:none;stroke:#C7C7C8;stroke-width:2;}
	.st3{fill:none;stroke:#DFDFE0;stroke-width:2;}
	.st4{fill:none;stroke:#BEBDBE;stroke-width:2;}
	.st5{fill:none;stroke:#B1B1B2;stroke-width:2;}
	.st6{fill:none;stroke:#D6D6D6;stroke-width:2;}
	.st7{fill:#F5F5F6;}
	.st8{fill:#194479;}
	.st9{fill:#0E2039;}
	.st10{fill:#E2E2E2;}
	.st11{fill:#C9C9C9;}
	.st12{fill:#99989A;}
</style>
<g>
	
		<rect x="944.4" y="161.6" transform="matrix(0.1279 -0.9918 0.9918 0.1279 620.6406 1132.0293)" class="st0" width="19.2" height="103"/>
	
		<rect x="1013.4" y="194.6" transform="matrix(0.5699 -0.8217 0.8217 0.5699 237.7686 946.5197)" class="st0" width="19.2" height="103"/>
	
		<rect x="993.5" y="245.2" transform="matrix(0.6267 -0.7793 0.7793 0.6267 151.64 882.9414)" class="st0" width="7.6" height="75.9"/>
	
		<rect x="882.5" y="654.5" transform="matrix(0.9816 -0.1907 0.1907 0.9816 -109.384 196.1232)" class="st0" width="163.6" height="23.7"/>
	<path class="st1" d="M827.1,54.8c2.7,3,4.1,5.9,4.2,8.7c0.1,4.2-3.4,7.7-6.7,9.8c-3.7,2.5-7.9,4.7-12.6,6.6
		c-7.6,3-15.7,5.6-24.5,7.8c-15.3,3.8-31.2,6.9-47.8,9.4c-0.5,0.1-0.8,0.4-0.9,0.9c-1.2,13.8-2.5,27.3-3.9,40.6l-0.1,0.1
		c-0.1,0-0.2,0.1-0.3,0.1s-0.2-0.1-0.2-0.2l-1.2-9.9c0-0.4-0.2-0.5-0.6-0.5l-30.2,0.1c-0.7,0-1.3-0.6-1.4-1.3l-1.6-23.7
		c0-0.4-0.4-0.7-0.8-0.7c-15.1,1.8-29.8,3.2-44.2,4.4c-54.7,4.6-112.1,7.1-172.2,7.7c-67.2,0.6-128.3-0.8-183.1-4.3
		c-20-1.3-40-2.8-59.9-4.7c-0.4,0-0.7,0.2-0.7,0.6v0.1c0.1,12.1,0.2,24.3,0.3,36.5c0,0.3,0,0.5-0.1,0.8c-0.1,0.4-0.2,0.8-0.2,1.2
		c0.1,295.2,0,573.8-0.2,835.8c0,0.8,0,1.5,0,2.2c0,0.3,0.2,0.5,0.5,0.6c0.6,0.2,0.9,0.6,0.9,1.1"/>
	<path class="st2" d="M239.5,984.8c-28.5-5-56.6-11.1-84.6-18.3"/>
	<path class="st1" d="M155,966.5c0-0.1,0.1-0.2,0.2-0.3c0.2-0.2,0.2-0.4-0.1-0.4H155c-0.1-0.1-0.1-0.3-0.1-0.4
		c0-11.6,0.1-22.4,0.3-32.6c0-0.2-0.1-0.5-0.2-0.7c-0.1-0.2-0.2-0.3-0.1-0.5c0.3-3.7-0.2-8-0.2-11c0-262.7,0-525.4,0-788.1v-0.1
		l-0.2-0.2c-0.1-0.1-0.1-0.2-0.1-0.4c0.1-3.4,0.2-6.8,0.4-10.2c0.2-3.4,0.2-6.8,0.2-10.2c0-4.7,0-9.6,0-14.5c0-0.3,0.1-0.6,0.1-0.8
		c0.1-0.2,0.1-0.3,0.2-0.5c0.2-0.4,0-0.6-0.4-0.7c-15.4-2.7-30.6-6.2-45.6-10.6"/>
	<path class="st3" d="M109.2,84.3c-9.9-3-20.3-6.9-28.4-13.7"/>
	<path class="st4" d="M730,983.7c-58.5,13.6-117.8,22.5-177.7,26.7"/>
	<path class="st2" d="M552.3,1010.5c-20.8,1.4-39.8,2.3-57.1,2.5c-53,0.7-106.8-1.6-161.3-7"/>
	<path class="st4" d="M334,1006c-41.9-4-83.7-10-125.5-17.9"/>
	<path class="st5" d="M208.5,988.2c-22.7-4.3-45.7-9.7-69.1-16"/>
	<path class="st4" d="M110,960.3c7,8.7,19,8.7,29.3,11.9"/>
	<path class="st4" d="M155,966.5c-10-1.5-19-4.5-28-8.5c-6-2-13-3-18.6-5"/>
	<path class="st6" d="M109.2,84.3C107,84,106,86,106,87c2,287,0,573,0.6,859.7"/>
	<path class="st1" d="M827.1,646c0.1,2.1,0.4,4.1,0.4,6.1"/>
	<path class="st6" d="M827.5,652c-0.8,2.3-1.2,5.1-1.4,8.5c-1,26.5-1.8,53.2-2.4,80"/>
	<path class="st6" d="M816.2,937.1c-2.2,4.9-1.2,10.9-4.1,15.8"/>
	<path class="st4" d="M812.1,952.8l-0.3-0.1h-0.1c-12.7,5.6-25.8,10.3-39.5,14c-19.4,5.3-38.5,9.5-57.5,12.8
		c-40.9,7-84.1,12.3-129.4,15.8c-47.1,3.7-89.3,5.9-126.6,6.7c-6.7,0.1-13.4,0.2-20,0.2c-66.9,0-133.3-5.9-199.2-17.5"/>
	<path class="st5" d="M730,983.7c26-6.4,51.7-13.2,77.2-21.9c0.6-0.2,1.1-0.6,1.3-1.2l3.6-7.9"/>
	<path class="st3" d="M173.2,45.9c-9.9,1.4-20,3-30.2,5c-9.2,1.7-17.8,4.3-25.8,7.7c-4.4,1.8-10,6.8-3.5,11.1
		c3.1,2,6.5,3.6,10.2,4.8c6.3,2,13,3.7,19.9,5c9.7,1.9,19.4,3.5,29.2,4.9"/>
	<path class="st1" d="M173,84.4c25.6,3.4,50.4,5.8,74.3,7.3c3.3,0.2,6.1,0.4,8.3,0.6c3.5,0.3,6.3,0.5,8.3,0.6
		c9.2,0.4,18.8,1,28.8,1.7c3.5,0.2,7,0.4,10.6,0.6c3.4,0.1,7,0.3,10.6,0.5c36,1.6,71.7,2.5,110.3,3c6.9,0.1,13.8,0.1,20.7-0.1"/>
	<path class="st3" d="M445,98.4c59.7,0.4,119.4-0.9,179-3.9c18.6-0.9,37.6-2.2,56.9-3.8"/>
	<path class="st2" d="M680.9,90.7c18.5-1.5,37.3-3.4,56.5-5.8c12.3-1.5,24.4-3.5,36.2-6c5.4-1.1,10.9-2.5,16.6-4.3
		c4.2-1.3,9.1-3.2,12.4-6.2c2.5-2.4,1.7-5.7-0.9-7.5c-2.9-2.1-6.4-3.7-10.3-5c-14.4-4.6-29.3-7.1-44.3-9.2
		c-22.7-3.2-45.4-5.6-68.3-7.3"/>
	<path class="st3" d="M678.7,39.4c-13.4-1.1-24-1.9-31.9-2.4c-65.2-3.8-130.5-5.5-195.8-5.2"/>
	<path class="st1" d="M451,31.8c-63.3-0.1-127.6,1.9-193,6.1c-29.3,1.9-57.6,4.5-84.8,8"/>
	<path class="st6" d="M451,31.8l-4.2,0.2c0.1,0.1,0.2,0.1,0.2,0.2c0.1,0.2,0.1,0.3,0.1,0.5v62.5c0,0.8-0.5,1.5-1.3,1.7
		c-0.7,0.2-1.4,0.3-2.2,0.4c-1,0.1-1,0.2,0,0.3c0.2,0,0.6,0.3,1.3,0.8"/>
	<path class="st6" d="M173,84.4l0.2-0.2l0.1-0.2c0-0.3-0.1-0.3-0.3-0.2h-0.1l0.3-37.8"/>
	<path class="st5" d="M678.7,39.4c-0.4,0.4-0.1,0.6,1.1,0.4c0.6-0.1,1.2,0.3,1.3,0.9v0.2l-0.2,49.8"/>
	<path class="st6" d="M836.1,217.6C836,239,836,260,836,281l-2,1c0,11,0,23,0.2,34"/>
	<path class="st1" d="M334.1,974.4c14.5,4,28.7,7.1,42.7,9.3c12.4,1.9,25.1,3.3,38.1,4.2c30.4,2.1,61.5,2.2,93.1,0.2
		c38.6-2.4,76.7-7.2,114.4-14.2c0.2,0,0.4-0.1,0.6-0.2c0.3-0.2,0.3-0.3-0.1-0.2c-3.3,0.4-6.5,0.7-9.8,0.9
		c-44.4,3.4-87.6,5.6-129.8,6.8c-35,1-69.2,0.9-103.8-1.3c-11.7-0.7-23.1-2-34.1-3.7c-2-0.3-4-0.7-5.8-1.2s-3.8-0.9-5.9-1.4
		l-0.1,0.1l-0.1,0.2C333.7,974.1,333.8,974.3,334.1,974.4"/>
	<path class="st7" d="M827.1,54.8c-8.6-5.3-18-9.4-28.5-12.5c-9.5-2.8-19.3-5.3-29.5-7.3c-33.8-6.8-68.4-11.1-102.5-14.2
		c-58.1-5.2-116.2-8.2-174.5-8.9c-0.4,0-0.8,0-1.2,0c-24.2,0-48.4,0-72.6,0c-0.6,0-1.1,0.1-1.7,0.2c-1.1,0.3-2.3,0.1-3.5,0.1
		c-48.6,0.6-96.6,2.7-143.9,6.3C244,20.4,218.6,23,193,26.3c-19.9,2.5-39.7,5.9-59.2,10c-8.6,1.8-17.4,4.1-26.3,6.9
		c-8.9,2.7-40,12.8-26.6,27.2c8.1,6.8,18.5,10.7,28.4,13.7c15,4.4,30.2,7.9,45.6,10.6c0.4,0.1,0.6,0.3,0.4,0.7
		c-0.1,0.2-0.1,0.3-0.2,0.5c0,0.2-0.1,0.5-0.1,0.8c0,4.9,0,9.8,0,14.5c0,3.4,0,6.8-0.2,10.2c-0.2,3.4-0.3,6.8-0.4,10.2
		c0,0.2,0,0.3,0.1,0.4l0.2,0.2v0.1c0,262.7,0,525.4,0,788.1c0,3,0.5,7.3,0.2,11c-0.1,0.2,0,0.3,0.1,0.5c0.1,0.2,0.2,0.5,0.2,0.7
		c-0.2,10.2-0.3,21-0.3,32.6c0,0.1,0,0.3,0.1,0.4h0.1c0.3,0,0.3,0.2,0.1,0.4c-0.1,0.1-0.2,0.2-0.2,0.3c28,7.2,56.1,13.3,84.6,18.3
		c0-0.5-0.3-0.9-0.9-1.1c-0.3-0.1-0.5-0.3-0.5-0.6c0-0.7,0-1.4,0-2.2c0.2-262,0.3-540.6,0.2-835.8c0-0.4,0.1-0.8,0.2-1.2
		c0.1-0.3,0.1-0.5,0.1-0.8c-0.1-12.2-0.2-24.4-0.3-36.5v-0.1c0-0.4,0.3-0.6,0.7-0.6c19.9,1.9,39.9,3.4,59.9,4.7
		c54.8,3.5,115.9,4.9,183.1,4.3c60.1-0.6,117.5-3.1,172.2-7.7c14.4-1.2,29.1-2.6,44.2-4.4c0.4,0,0.8,0.3,0.8,0.7l1.6,23.7
		c0.1,0.7,0.7,1.3,1.4,1.3l30.2-0.1c0.4,0,0.6,0.1,0.6,0.5l1.2,9.9c0,0.1,0.1,0.2,0.2,0.2s0.2-0.1,0.3-0.1l0.1-0.1
		c1.4-13.3,2.7-26.8,3.9-40.6c0.1-0.5,0.4-0.8,0.9-0.9c16.6-2.5,32.5-5.6,47.8-9.4c8.8-2.2,16.9-4.8,24.5-7.8
		c4.7-1.9,8.9-4.1,12.6-6.6c3.3-2.1,6.8-5.6,6.7-9.8C831.2,60.7,829.8,57.8,827.1,54.8z M802.5,68.6c-3.3,3-8.2,4.9-12.4,6.2
		c-5.7,1.8-11.2,3.2-16.6,4.3c-11.8,2.5-23.9,4.5-36.2,6c-19.2,2.4-38,4.3-56.5,5.8c-19.3,1.6-38.3,2.9-56.9,3.8
		c-59.6,3-119.3,4.3-179,3.9c-6.9,0.2-13.8,0.2-20.7,0.1c-38.6-0.5-74.3-1.4-110.3-3c-3.6-0.2-7.2-0.4-10.6-0.5
		c-3.6-0.2-7.1-0.4-10.6-0.6c-10-0.7-19.6-1.3-28.8-1.7c-2-0.1-4.8-0.3-8.3-0.6c-2.2-0.2-5-0.4-8.3-0.6c-23.9-1.5-48.7-3.9-74.3-7.3
		c-9.8-1.4-19.5-3-29.2-4.9c-6.9-1.3-13.6-3-19.9-5c-3.7-1.2-7.1-2.8-10.2-4.8c-6.5-4.3-0.9-9.3,3.5-11.1c8-3.4,16.6-6,25.8-7.7
		c10.2-2,20.3-3.6,30.2-5c27.2-3.5,55.5-6.2,84.8-7.8c65.4-4.2,129.7-6.2,193-6.1c65.3-0.3,130.6,1.4,195.8,5.2
		c7.9,0.5,18.5,1.3,31.9,2.4c22.9,1.7,45.6,4.1,68.3,7.3c15,2.1,29.9,4.6,44.3,9.2c3.9,1.3,7.4,2.9,10.3,5
		C804.2,62.9,805,66.2,802.5,68.6z"/>
	<path class="st8" d="M451,31.8l-4.2,0.2c0.1,0.1,0.2,0.1,0.2,0.2c0.1,0.2,0.1,0.3,0.1,0.5v62.5c0,0.8-0.5,1.5-1.3,1.7
		c-0.7,0.2-1.4,0.3-2.2,0.4c-1,0.1-1,0.2,0,0.3c0.2,0,0.6,0.3,1.3,0.8c-6.9,0.1-13.8,0.2-20.7,0.1c-38.6-0.5-74.2-1.4-110.3-3
		c-3.7-0.2-7.2-0.3-10.6-0.5c-3.6-0.1-7.2-0.3-10.6-0.6c-10-0.7-19.6-1.3-28.8-1.7c-2-0.1-4.8-0.3-8.3-0.6c-2.3-0.2-5-0.4-8.3-0.6
		c-23.9-1.5-48.6-3.9-74.3-7.3l0.2-0.2l0.1-0.2c0-0.3-0.1-0.3-0.3-0.2h-0.1l0.3-37.8c27.2-3.5,55.5-6.1,84.8-8
		C323.4,33.7,387.7,31.7,451,31.8z"/>
	<path class="st0" d="M451,31.8c65.3-0.3,130.6,1.4,195.8,5.2c7.9,0.5,18.6,1.2,31.9,2.4c-0.4,0.4-0.1,0.6,1.1,0.4
		c0.6-0.1,1.2,0.3,1.3,0.9v0.2l-0.2,49.8c-19.3,1.6-38.3,2.8-56.9,3.8c-59.6,3-119.3,4.3-179,3.9c-0.7-0.5-1.2-0.8-1.3-0.8
		c-1-0.1-1-0.2,0-0.3c0.8-0.1,1.5-0.2,2.2-0.4c0.7-0.2,1.3-0.9,1.3-1.7V32.8c0-0.2,0-0.3-0.1-0.5c-0.1-0.1-0.1-0.2-0.2-0.2L451,31.8
		z"/>
	<path class="st9" d="M678.7,39.4c22.9,1.7,45.6,4.2,68.3,7.3c15,2.1,29.9,4.6,44.3,9.2c3.9,1.3,7.4,2.9,10.3,5
		c2.7,1.9,3.5,5.2,0.9,7.5c-3.2,3-8.2,4.9-12.4,6.2c-5.6,1.7-11.2,3.2-16.6,4.3c-11.9,2.4-23.9,4.4-36.2,6
		c-19.1,2.4-38,4.3-56.5,5.8l0.2-49.8c0-0.6-0.5-1.1-1.1-1.1h-0.2C678.6,40,678.3,39.8,678.7,39.4z"/>
	<path class="st0" d="M173.2,45.9l-0.3,37.9h0.1c0.2-0.1,0.3,0,0.3,0.2l-0.1,0.2l-0.2,0.2c-9.8-1.4-19.5-3-29.2-4.9
		c-6.9-1.3-13.6-3-19.9-5c-3.7-1.2-7.1-2.8-10.2-4.8c-6.6-4.3-0.9-9.2,3.5-11.1c8-3.4,16.7-6,25.8-7.7
		C153.2,48.9,163.3,47.3,173.2,45.9z"/>
	<path class="st10" d="M824.6,624.3c-0.1-0.2-0.2-0.4-0.2-0.7l7.4-307.5c0-0.3,0.2-0.5,0.5-0.5c0.1,0,0.3,0,0.4,0
		c0-0.6-0.1-1.1-0.4-1.5c-0.2-0.2-0.3-0.5-0.3-0.8l0.7-31.6c0-0.4,0.2-0.7,0.6-0.9l0.3-0.2c0.3-0.2,0.5-0.4,0.5-0.8
		c0-7.2,0-14.3,0-21.3c0-0.1,0-0.2,0.1-0.3c0.1-0.1,0.1-0.3,0.1-0.5l0.4-46.7c0-0.3,0.1-0.5,0.3-0.5c0.1-9.7,1.9-20.3,1-29.9
		c-0.2-0.1-0.3-0.3-0.3-0.6l2.9-118.2c0-0.4-0.1-0.7-0.4-0.9c-3.5-2.6-7.5-4.7-12-6.5c2.7,3,4.1,5.9,4.2,8.7
		c0.1,4.2-3.4,7.7-6.7,9.8c-3.7,2.5-7.9,4.7-12.6,6.6c-7.6,3-15.7,5.6-24.5,7.8c-15.3,3.8-31.2,6.9-47.8,9.4l-41.3,6.1
		c-15.1,1.8-29.8,3.2-44.2,4.4c-54.7,4.6-112.1,7.1-172.2,7.7c-67.2,0.6-128.3-0.8-183.1-4.3c-20-1.3-40-2.8-59.9-4.7H238
		c-0.4,0-0.7,0.3-0.6,0.7c0.1,12.1,0.2,24.3,0.3,36.5c0,0.3,0,0.5-0.1,0.8c-0.1,0.4-0.2,0.8-0.2,1.2c0.1,295.2,0,573.8-0.2,835.8
		c0,0.8,0,1.5,0,2.2c0,0.3,0.2,0.5,0.5,0.6c0.6,0.2,0.9,0.6,0.9,1.1c65.9,11.6,132.3,17.4,199.2,17.5c6.6,0,13.3-0.1,20-0.2
		c37.3-0.8,79.5-3.1,126.6-6.7c45.3-3.5,88.5-8.8,129.4-15.8c18.9-3.2,38.1-7.5,57.5-12.8c13.7-3.7,26.8-8.4,39.5-14h0.1l0.3,0.1
		c0,0.2,0.1,0.4,0.3,0.5c0.1,0,0.2,0.1,0.3,0.1c0.3,0,0.5-0.3,0.4-0.5c-0.1-0.6,0-1.2,0.1-1.9c1.1-5.1,2.2-10.3,3.3-15.4
		c0.9-16,1.9-30.9,2.7-35.5c1.3-51.7,2.5-103.5,3.8-155.2c0-0.5,0.2-1.2,0.5-2.1c0.3-0.8,0.4-1.5,0.2-2.3c0.6-26.8,1.4-53.4,2.4-80
		c0.1-3.4,0.6-6.2,1.4-8.5l-0.1-11.2c0-0.8,0.1-1.2,0.3-1c-0.9-5.2-1.7-9.7-1.8-14.9C824.9,624.7,824.7,624.5,824.6,624.3z
		 M622.1,973.6c-0.2,0.1-0.4,0.2-0.6,0.2c-37.7,7.1-75.8,11.8-114.4,14.2c-31.7,2-62.7,1.9-93.1-0.2c-13-0.9-25.7-2.3-38.1-4.2
		c-14-2.2-28.2-5.3-42.7-9.3c-0.3-0.1-0.4-0.3-0.3-0.5l0.1-0.2l0.1-0.1c2.1,0.5,4.1,0.9,5.9,1.4c1.9,0.5,3.8,0.9,5.8,1.2
		c11,1.7,22.4,3,34.1,3.7c34.5,2.2,68.7,2.3,103.8,1.3c42.1-1.2,85.4-3.5,129.8-6.8c3.3-0.2,6.5-0.6,9.8-0.9
		C622.4,973.3,622.4,973.4,622.1,973.6z"/>
	<path class="st0" d="M1112.9,416.8c-0.8-26.5-4.3-52.3-10.4-77.4c-7.6-31-20-61.3-39.1-86.6c-14.9-19.8-33.4-35.2-55.5-46.4
		c-36.7-18.6-79-23.8-119.6-24.7c-14.3-0.3-29.3-0.2-45,0.4c-1.8,0.1-4.2-0.4-7.1-1.5l-0.2-0.1c0.9,9.7-1,20.2-1,29.9
		c0.1,0,0.2-0.1,0.3-0.1c19.3-0.8,37.9-1.3,56-1.5c4.5-0.1,10.4,0.2,15.7,0.2c10.8,0,24.2,1.1,40,3.1c-1.3-0.9-2.5-1.2-3.7-0.9
		c-0.5,0.1-0.8,0-1-0.5l-0.1-0.3c-0.1-0.4,0-0.6,0.4-0.7c5.3-1.5,10.4-2.2,15.2-2.2c31.1-0.1,58.1,20.9,78.4,42.6
		c5.6,6,10.4,12.3,14.3,18.9c4.7,7.7,8.1,16.8,5.9,25.1c-0.3,1.1-0.7,1.1-1.3,0.2l-8.3-14.5l-0.9,0.9c-0.3,0.3-0.6,0.3-0.9,0
		c-0.1-0.1-0.1-0.1-0.1-0.2c0-0.4-0.3-0.6-0.7-0.5c-0.6,0.1-1-0.1-1.3-0.6c-0.2-0.4-0.6-0.6-1-0.5c-0.5,0.1-0.9-0.1-1-0.6
		c-0.1-0.3-0.4-0.5-0.7-0.4c-0.6,0.2-1,0-1.3-0.6c-0.1-0.3-0.5-0.5-0.9-0.5c-0.6,0.1-1-0.1-1.2-0.7c-0.1-0.3-0.3-0.4-0.6-0.3
		c-1,0.3-1.8,0.1-2.4-0.6c-0.3-0.3-0.7-0.5-1.1-0.4c-0.4,0.1-0.7-0.1-0.8-0.5c-0.1-0.4-0.4-0.5-0.8-0.5c-0.6,0.1-1-0.1-1.3-0.6
		c-0.2-0.4-0.7-0.6-1.1-0.5c-0.9,0.3-1.5,0.1-2-0.6c-0.3-0.4-0.8-0.5-1.2-0.4c-0.7,0.3-1.3,0.1-1.7-0.6c-0.2-0.4-0.7-0.5-1.1-0.4
		c-0.4,0.1-0.7-0.1-0.9-0.5c-0.2-0.5-0.6-0.7-1.2-0.5c-0.8,0.2-1.4,0.1-1.9-0.5c-0.4-0.5-0.9-0.6-1.4-0.5c-0.7,0.2-1.3,0-1.6-0.6
		c-0.2-0.4-0.6-0.5-1-0.4c-0.9,0.3-1.5,0.1-2-0.6c-0.2-0.4-0.7-0.6-1.2-0.5c-1.3,0.4-2.3,0.1-3-0.7c-0.2-0.3-0.5-0.4-0.9-0.3
		c-0.9,0.3-1.6,0-2.1-0.7c-0.2-0.3-0.6-0.5-0.9-0.4c-1.3,0.3-2.3,0.1-3.1-0.6c-0.2-0.2-0.5-0.3-0.8-0.3h-3.3c-0.4,0-0.6-0.2-0.8-0.5
		l-0.1-0.2c-0.1-0.2-0.3-0.3-0.6-0.3h-2.5c-0.4,0-0.6-0.2-0.8-0.5l-0.1-0.3c-0.1-0.2-0.2-0.2-0.4-0.2c-1.4,0-2.9,0-4.5,0
		c-0.3,0-0.6-0.1-0.8-0.2c-0.1-0.1-0.1-0.1-0.2-0.3c-0.1-0.3-0.3-0.5-0.6-0.5c-1.7,0-3.5,0-5.4,0c-0.3,0-0.6-0.1-0.8-0.2
		c-0.1-0.1-0.1-0.1-0.2-0.2c-0.1-0.3-0.3-0.5-0.6-0.5c-2.4,0-4.8,0-7.4,0c-0.3,0-0.6-0.1-0.9-0.2c-0.1-0.1-0.2-0.2-0.1-0.3
		c0-0.3-0.1-0.5-0.5-0.5h-26c-0.2,0-0.4-0.1-0.5-0.2c-0.3-0.2-0.6-0.3-1-0.1c-0.2,0.1-0.2,0.2,0,0.2l0.1,0.1v0.1
		c-0.2,0.2-0.2,0.4-0.2,0.6c77.4,18.3,98.5,95.5,99.6,165.2c0.7,41.3-4.6,83.1-13.1,123.5c-5.3,25-15.6,50.8-32.7,70.3
		c-20.6,23.6-46.8,37-78.7,40.1c-28.1,2.8-63.3-3.7-84.4-23.5c-3.3-3.1-5.6-6.6-8.2-10.2c0.1,5.2,0.9,9.7,1.8,14.9
		c0.1,0.1,0.3,0.4,0.5,0.8c0.2,0.5,0.5,0.9,0.8,1.2c2.9,3.2,6.7,6.1,11.3,8.9c13.6,8.2,27.7,15.7,42.2,22.4c1.8,0.8,3.8,1.8,5.8,2.7
		c17.7,0,34.9-3.3,51.5-9.8c2.7-1.1,5.4-2.2,8.1-3.4c0.6-0.3,1.5-0.2,2.6,0.1c0.8,0.2,1.6,0.3,2.5,0.3c5.2-0.2,10.6-0.2,16-0.1
		c0.3,0,0.6-0.1,0.8-0.3c0.1-0.1,0.1-0.2,0.1-0.3c0.1-0.3,0.3-0.4,0.6-0.4h8.7c0.2,0,0.4-0.1,0.6-0.2c0.1-0.1,0.2-0.2,0.2-0.3
		c0.1-0.3,0.4-0.5,0.7-0.5h5.4c0.3,0,0.6-0.1,0.8-0.4l0.2-0.2c0.3-0.3,0.6-0.4,0.9-0.4h3.7c0.4,0,0.8-0.1,1.1-0.3
		c1.1-0.7,2.3-0.9,3.8-0.6c0.4,0.1,0.8,0,1-0.2c0.9-0.7,2-1,3.2-0.8c0.3,0.1,0.6,0,0.9-0.3c0.8-0.8,1.8-1,3-0.7c0.4,0.1,0.7,0,1-0.3
		c0.7-0.8,1.7-1,3-0.7c0.4,0.1,0.8,0,1-0.4c0.4-0.7,1.1-0.9,2-0.6c0.4,0.1,0.8,0,1.1-0.4c0.5-0.7,1.2-0.9,2.1-0.6
		c0.4,0.1,0.7,0,0.9-0.4l0.1-0.3c0.1-0.2,0.3-0.3,0.5-0.3h2.8c0.3,0,0.5-0.1,0.7-0.4c0.3-0.5,0.7-0.7,1.3-0.6c0.2,0.1,0.4,0,0.5-0.2
		c0.5-0.8,1.2-1.1,2.2-0.8c0.4,0.1,0.7,0,0.9-0.3c0.4-0.7,1.1-0.9,1.9-0.7c0.5,0.2,0.9,0,1.2-0.5c0.2-0.5,0.6-0.6,1.1-0.5
		c0.3,0.1,0.5,0,0.7-0.3c0.5-0.8,1.2-1,2.2-0.7c0.4,0.1,0.8-0.1,0.9-0.5c0.2-0.5,0.6-0.7,1.1-0.6c0.5,0.1,0.8-0.1,1-0.6l0.1-0.2
		c0.3-0.2,0.6-0.3,0.9-0.2c0.4,0.1,0.7,0,0.9-0.4c0.1-0.2,0.2-0.3,0.4-0.4l3.1-1.2h0.2v0.2c-20.5,30.8-47.3,54.1-80.6,69.9
		c-15.8,7.5-32.6,13.1-50.3,16.9c-13.4,2.8-24.8,4.5-34.2,5.2c-4.5,0.3-7.4,0.6-8.6,0.9c25.9,0,51.4-3.1,76.4-9.4
		c15.3-3.9,30.1-9.1,44.2-15.8c41.2-19.4,71.8-49.1,91.8-89.2c2.9-5.9,5.3-11.8,7.2-17.7c15.6-49.7,24.7-99.7,27.2-150
		C1113.3,442.6,1113.3,429.2,1112.9,416.8z M1017.1,304c-0.1,0-0.2,0-0.2-0.1c-1.6-3.2-3.6-6.1-6-8.6
		c-10.8-11.4-24.7-20.8-38.1-28.4c-0.5-0.3-0.5-0.4,0.1-0.4c22.1,1.5,37.5,16.8,44.3,37.3C1017.2,303.9,1017.2,304,1017.1,304z"/>
	<path class="st11" d="M80.8,70.7L100.9,907h0.1l0.1,0.1c0,0.4,0,0.7,0,1.1c0.1,0.5,0.1,1.1,0.1,1.6c0,0.2,0,0.4,0,0.6
		c0.1,3.5,0.2,6.9,0.2,10.2c0,2,0.1,3.9,0.4,5.7v0.1c0.2,1.2,0.4,2.3,0.6,3.4c1.2,5.3,2.5,10.8,3.7,16.4c0.2,0.2,0.3,0.4,0.4,0.6
		c0.1,0,0.1-0.1,0.2-0.2l0.2-0.2l0.1-0.1V758.9c0-0.2,0-0.5-0.1-0.7c-0.1-0.1-0.1-0.3-0.1-0.5c0-8.4,0-17,0-26c0-0.2,0-0.3,0.1-0.5
		s0.1-0.5,0.1-0.8V611.8c0-0.1,0-0.1-0.1-0.2c-0.1-0.3-0.2-0.5-0.2-0.8c0.1-20.3,0.1-40.7,0.2-61.1c0-2,0-4.1-0.2-6.1
		c-0.2-2.6,0.2-5,0.2-7.6c0-33.8,0-67.6,0-101.3c0-1.5-0.3-3-0.3-4.5c0.1-2.6,0.1-5.3,0-8.2c-0.1-1.6,0.2-3,0.3-4.6
		c0-42.4,0-84.7,0-127.1c0-0.6-0.3-1-0.3-1.7c0.3-63.1,0.4-131,0.2-203.6v-0.1c0-0.4,0.4-0.6,0.8-0.6c0.3,0,0.4,0.1,0.4,0.3
		c0,0.4,0.1,0.5,0.5,0.3c0.2-0.1,0.5-0.3,0.7-0.4C99.3,81.3,88.9,77.4,80.8,70.7z"/>
	<path class="st10" d="M155.1,965.7L155.1,965.7c-0.2-0.2-0.2-0.3-0.2-0.5c0-11.6,0.1-22.4,0.3-32.6c0-0.2-0.1-0.5-0.2-0.7
		c-0.1-0.2-0.2-0.3-0.1-0.5c0.3-3.7-0.2-8-0.2-11v-788v-0.1l-0.2-0.2c-0.1-0.1-0.1-0.2-0.1-0.4c0.1-3.4,0.2-6.8,0.4-10.2
		c0.2-3.4,0.2-6.8,0.2-10.2c0-4.7,0-9.6,0-14.5c0-0.3,0.1-0.6,0.1-0.8c0.1-0.2,0.1-0.3,0.2-0.5c0.2-0.4,0-0.6-0.4-0.7
		c-15.4-2.7-30.6-6.2-45.6-10.6c-0.2,0.1-0.4,0.3-0.7,0.4c-0.4,0.2-0.5,0.1-0.5-0.3c0-0.2-0.1-0.3-0.4-0.3h-0.1
		c-0.4,0-0.7,0.3-0.7,0.7c0.1,72.6,0.1,140.5-0.2,203.6c0,0.7,0.3,1.1,0.3,1.7c0,42.4,0,84.7,0,127.1c0,1.5-0.3,3-0.3,4.6
		c0.1,2.9,0.1,5.6,0,8.2c-0.1,1.5,0.3,3,0.3,4.5c0,33.7,0,67.5,0,101.3c0,2.6-0.4,5-0.2,7.6c0.1,2,0.2,4.1,0.2,6.1
		c-0.1,20.4-0.2,40.8-0.2,61.1c0,0.3,0.1,0.6,0.2,0.8c0.1,0.1,0.1,0.2,0.1,0.2v118.8c0,0.3,0,0.5-0.1,0.8c-0.1,0.2-0.1,0.3-0.1,0.5
		c0,9,0,17.6,0,26c0,0.2,0,0.3,0.1,0.5c0.1,0.2,0.1,0.4,0.1,0.7v187.5l-0.1,0.1l-0.2,0.2c-0.1,0.1-0.2,0.2-0.2,0.2
		c0.3,0.6,0.5,1.2,0.6,1.9c0.4,0.9,0.5,1.9,0.4,2.9c0.1,0.3,0.1,0.7,0.1,1c0.1,0.1,0.1,0.2,0.2,0.3c0.1-0.2,0.3-0.2,0.5-0.2
		c15.6,5.2,31.2,9.8,46.9,13.8c0-0.1,0.1-0.2,0.2-0.3C155.4,966,155.4,965.8,155.1,965.7z"/>
	<path class="st8" d="M1046.8,280c-18.6-28.7-46.6-50.1-78.5-62.2c-6.7-2.5-13.6-4.3-20.8-5.1c-1.3-0.9-2.5-1.2-3.7-0.9
		c-0.5,0.1-0.8,0-1-0.5l-0.1-0.3c-0.1-0.4,0-0.6,0.4-0.7c5.3-1.5,10.4-2.2,15.2-2.2c31.1-0.1,58.1,20.9,78.4,42.6
		c5.6,6,10.4,12.3,14.3,18.9c4.3,7.2,7.6,16.4,5.4,24.8c-0.3,1.1-0.7,1.1-1.3,0.2L1046.8,280z"/>
	<path class="st9" d="M968.3,217.7c-6.8-2.5-13.7-4.2-20.8-5.1c-15.8-2-29.2-3.1-40.4-3.5c-5.3,0-11.2-0.3-15.7-0.2
		c-18.1,0.2-36.7,0.7-56,1.5c-0.2,0-0.3,0-0.4,0.1c0,0.2,0,0.3,0,0.5c0-0.2,0-0.3,0-0.5c-0.1,0.1-0.2,0.3-0.2,0.5l-0.4,46.7
		c0,0.2,0,0.4-0.1,0.5c-0.1,0.1-0.1,0.2-0.1,0.3c0,7,0,14.1,0,21.3c0,0.4-0.2,0.6-0.5,0.8l-0.3,0.2c-0.4,0.2-0.6,0.5-0.6,0.9
		l-0.7,31.6c0,0.3,0.1,0.6,0.3,0.8c0.3,0.4,0.4,0.9,0.4,1.5h6.6c0.3,0,0.5-0.2,0.6-0.5c9.5-32.5,34-56.4,68.5-58.8
		c11.3-0.8,22.6,0.3,34,3.2c0-0.2,0-0.4,0.2-0.6v-0.1l-0.1-0.1c-0.2,0-0.2-0.1,0-0.2c0.4-0.2,0.7-0.1,1,0.1c0.1,0.1,0.3,0.2,0.5,0.2
		h26c0.4,0,0.5,0.2,0.5,0.5c-0.1,0.1,0,0.2,0.1,0.3c0.3,0.1,0.6,0.2,0.9,0.2c2.6,0,5,0,7.4,0c0.3,0,0.5,0.2,0.6,0.5
		c0.1,0.1,0.1,0.1,0.2,0.2c0.2,0.1,0.5,0.2,0.8,0.2c1.9,0,3.7,0,5.4,0c0.3,0,0.5,0.2,0.6,0.5c0.1,0.2,0.1,0.2,0.2,0.3
		c0.2,0.1,0.5,0.2,0.8,0.2c1.6,0,3.1,0,4.5,0c0.2,0,0.3,0,0.4,0.2l0.1,0.3c0.2,0.3,0.4,0.5,0.8,0.5h2.5c0.3,0,0.5,0.1,0.6,0.3
		l0.1,0.2c0.2,0.3,0.4,0.5,0.8,0.5h3.3c0.3,0,0.6,0.1,0.8,0.3c0.8,0.7,1.8,0.9,3.1,0.6c0.3-0.1,0.7,0.1,0.9,0.4
		c0.5,0.7,1.2,1,2.1,0.7c0.4-0.1,0.7,0,0.9,0.3c0.7,0.8,1.7,1.1,3,0.7c0.5-0.1,1,0.1,1.2,0.5c0.5,0.7,1.1,0.9,2,0.6
		c0.4-0.1,0.8,0,1,0.4c0.3,0.6,0.9,0.8,1.6,0.6c0.5-0.1,1,0,1.4,0.5c0.5,0.6,1.1,0.7,1.9,0.5c0.6-0.2,1,0,1.2,0.5
		c0.2,0.4,0.5,0.6,0.9,0.5c0.4-0.1,0.9,0,1.1,0.4c0.4,0.7,1,0.9,1.7,0.6c0.4-0.1,0.9,0,1.2,0.4c0.5,0.7,1.1,0.9,2,0.6
		c0.4-0.1,0.9,0.1,1.1,0.5c0.3,0.5,0.7,0.7,1.3,0.6c0.4,0,0.7,0.1,0.8,0.5c0.1,0.4,0.4,0.6,0.8,0.5c0.4-0.1,0.8,0.1,1.1,0.4
		c0.6,0.7,1.4,0.9,2.4,0.6c0.3-0.1,0.5,0,0.6,0.3c0.2,0.6,0.6,0.8,1.2,0.7c0.4,0,0.8,0.2,0.9,0.5c0.3,0.6,0.7,0.8,1.3,0.6
		c0.3-0.1,0.6,0.1,0.7,0.4c0.1,0.5,0.5,0.7,1,0.6c0.4-0.1,0.8,0.1,1,0.5c0.3,0.5,0.7,0.7,1.3,0.6c0.4-0.1,0.7,0.1,0.7,0.5
		c0,0.1,0,0.1,0.1,0.2c0.3,0.3,0.6,0.3,0.9,0l0.9-0.9C1028.2,251.2,1000.2,229.8,968.3,217.7z"/>
	<path class="st8" d="M973.9,266.5c22.1,1.5,37.5,16.8,44.3,37.2c0,0.1,0,0.2-0.1,0.2c-0.1,0-0.2,0-0.2-0.1c-1.6-3.2-3.6-6.1-6-8.6
		c-10.8-11.4-24.7-20.8-38.1-28.4C973.2,266.6,973.3,266.5,973.9,266.5z"/>
	<path class="st8" d="M888.3,675.9c-10.5,0.7-20.9-0.6-31.3-4.1c-12.1-4.1-21.9-10.6-29.5-19.8l-0.1-11.2c0-1.3,0.2-1.4,0.8-0.2
		c0.2,0.5,0.5,0.9,0.8,1.2c2.9,3.2,6.7,6.1,11.3,8.9c13.6,8.2,27.7,15.7,42.2,22.4C884.3,674,886.3,674.9,888.3,675.9z"/>
	<path class="st9" d="M866.9,737.2c-10.3,0.2-20.7-0.1-31.1-1c-3.1-0.2-7.1,1.2-12,4.2c0.6-26.8,1.4-53.4,2.4-80
		c0.1-3.4,0.6-6.2,1.4-8.5c7.5,9.1,17.3,15.7,29.5,19.8c10.4,3.5,20.9,4.9,31.3,4.1c17.7,0,34.9-3.3,51.5-9.8
		c2.7-1.1,5.4-2.2,8.1-3.4c0.6-0.3,1.5-0.2,2.6,0.1c0.8,0.2,1.6,0.3,2.5,0.3c5.2-0.2,10.6-0.2,16-0.1c0.3,0,0.6-0.1,0.8-0.3
		c0.1-0.1,0.1-0.2,0.1-0.3c0.1-0.3,0.3-0.4,0.6-0.4h8.7c0.2,0,0.4-0.1,0.6-0.2c0.1-0.1,0.2-0.2,0.2-0.3c0.1-0.3,0.4-0.5,0.7-0.5h5.4
		c0.3,0,0.6-0.1,0.8-0.4l0.2-0.2c0.3-0.3,0.6-0.4,0.9-0.4h3.7c0.4,0,0.8-0.1,1.1-0.3c1.1-0.7,2.3-0.9,3.8-0.6c0.4,0.1,0.8,0,1-0.2
		c0.9-0.7,2-1,3.2-0.8c0.3,0.1,0.6,0,0.9-0.3c0.8-0.8,1.8-1,3-0.7c0.4,0.1,0.7,0,1-0.3c0.7-0.8,1.7-1,3-0.7c0.4,0.1,0.8,0,1-0.4
		c0.4-0.7,1.1-0.9,2-0.6c0.4,0.1,0.8,0,1.1-0.4c0.5-0.7,1.2-0.9,2.1-0.6c0.4,0.1,0.7,0,0.9-0.4l0.1-0.3c0.1-0.2,0.3-0.3,0.5-0.3h2.8
		c0.3,0,0.5-0.1,0.7-0.4c0.3-0.5,0.7-0.7,1.3-0.6c0.2,0.1,0.4,0,0.5-0.2c0.5-0.8,1.2-1.1,2.2-0.8c0.4,0.1,0.7,0,0.9-0.3
		c0.4-0.7,1.1-0.9,1.9-0.7c0.5,0.2,0.9,0,1.2-0.5c0.2-0.5,0.6-0.6,1.1-0.5c0.3,0.1,0.5,0,0.7-0.3c0.5-0.8,1.2-1,2.2-0.7
		c0.4,0.1,0.8-0.1,0.9-0.5c0.2-0.5,0.6-0.7,1.1-0.6c0.5,0.1,0.8-0.1,1-0.6l0.1-0.2c0.3-0.2,0.6-0.3,0.9-0.2c0.4,0.1,0.7,0,0.9-0.4
		c0.1-0.2,0.2-0.3,0.4-0.4l3.1-1.2c0.1,0,0.2,0,0.2,0.1v0.2c-20.5,30.8-47.3,54.1-80.6,69.9c-15.8,7.5-32.6,13.1-50.3,16.9
		c-13.4,2.8-24.8,4.5-34.2,5.2C871,736.6,868.1,736.9,866.9,737.2z"/>
	<path class="st12" d="M811.8,952.7L811.8,952.7c-12.8,5.6-25.9,10.3-39.6,14c-19.4,5.3-38.5,9.5-57.5,12.8
		c-40.9,7-84.1,12.3-129.4,15.8c-47.1,3.7-89.3,5.9-126.6,6.7c-6.7,0.1-13.4,0.2-20,0.2c-66.9,0-133.3-5.9-199.2-17.5
		c-28.5-5-56.6-11.1-84.6-18.3c-15.7-4-31.3-8.6-46.9-13.8h-0.3c-0.1,0-0.2,0.1-0.2,0.2c0.2,0.5,0.3,1,0.4,1.5l2.4,6.6
		c0.1,0.3,0.3,0.6,0.7,0.8c3.3,1.8,6.6,3.4,10.2,4.6c6.3,2.2,12.4,4.1,18.1,5.8c23.4,6.4,46.4,11.7,69.1,16
		c41.8,7.9,83.6,13.9,125.5,17.9c54.5,5.4,108.3,7.7,161.3,7c17.2-0.2,36.3-1.1,57.1-2.5c59.9-4.2,119.2-13.1,177.7-26.7
		c26-6.4,51.7-13.2,77.2-21.9c0.6-0.2,1.1-0.6,1.3-1.2l3.6-7.9L811.8,952.7z"/>
	<path class="st7" d="M334.1,974.4c-0.3-0.1-0.4-0.3-0.3-0.5l0.1-0.2l0.1-0.1c2.1,0.5,4.1,0.9,5.9,1.4c1.9,0.5,3.8,0.9,5.8,1.2
		c11,1.7,22.4,3,34.1,3.7c34.5,2.2,68.7,2.3,103.8,1.3c42.1-1.2,85.4-3.5,129.8-6.8c3.3-0.2,6.5-0.6,9.8-0.9c0.4,0,0.4,0,0.1,0.2
		c-0.2,0.1-0.4,0.2-0.6,0.2c-37.7,7.1-75.8,11.8-114.4,14.2c-31.7,2-62.7,1.9-93.1-0.2c-13-0.9-25.7-2.3-38.1-4.2
		C362.8,981.5,348.6,978.4,334.1,974.4z"/>
</g>
</svg>
