<?xml version="1.0" encoding="utf-8"?>
<!-- Generator: Adobe Illustrator 25.0.0, SVG Export Plug-In . SVG Version: 6.00 Build 0)  -->
<svg version="1.1" id="Layer_2_1_" xmlns="http://www.w3.org/2000/svg" xmlns:xlink="http://www.w3.org/1999/xlink" x="0px" y="0px"
	 viewBox="0 0 1128 1030" style="enable-background:new 0 0 1128 1030;" xml:space="preserve">
<style type="text/css">
	.st0{fill:none;stroke:#ECECEC;stroke-width:2;}
	.st1{fill:none;stroke:#C7C7C8;stroke-width:2;}
	.st2{fill:none;stroke:#DFDFE0;stroke-width:2;}
	.st3{fill:none;stroke:#BEBDBE;stroke-width:2;}
	.st4{fill:none;stroke:#B1B1B2;stroke-width:2;}
	.st5{fill:none;stroke:#D6D6D6;stroke-width:2;}
	.st6{fill:#F5F5F6;}
	.st7{fill:#E2E2E2;}
	.st8{fill:#C9C9C9;}
	.st9{fill:#99989A;}
</style>
<g>
	<path class="st0" d="M827.1,54.8c2.7,3,4.1,5.9,4.2,8.7c0.1,4.2-3.4,7.7-6.7,9.8c-3.7,2.5-7.9,4.7-12.6,6.6
		c-7.6,3-15.7,5.6-24.5,7.8c-15.3,3.8-31.2,6.9-47.8,9.4c-0.5,0.1-0.8,0.4-0.9,0.9c-1.2,13.8-2.5,27.3-3.9,40.6l-0.1,0.1
		c-0.1,0-0.2,0.1-0.3,0.1c-0.1,0-0.2-0.1-0.2-0.2l-1.2-9.9c0-0.4-0.2-0.5-0.6-0.5l-30.2,0.1c-0.7,0-1.3-0.6-1.4-1.3l-1.6-23.7
		c0-0.4-0.4-0.7-0.8-0.7l0,0c-15.1,1.8-29.8,3.2-44.2,4.4c-54.7,4.6-112.1,7.1-172.2,7.7c-67.2,0.6-128.3-0.8-183.1-4.3
		c-20-1.3-40-2.8-59.9-4.7c-0.4,0-0.7,0.2-0.7,0.6l0,0.1c0.1,12.1,0.2,24.3,0.3,36.5c0,0.3,0,0.5-0.1,0.8c-0.1,0.4-0.2,0.8-0.2,1.2
		c0.1,295.2,0,573.8-0.2,835.8c0,0.8,0,1.5,0,2.2c0,0.3,0.2,0.5,0.5,0.6c0.6,0.2,0.9,0.6,0.9,1.1"/>
	<path class="st1" d="M239.5,984.8c-28.5-5-56.6-11.1-84.6-18.3"/>
	<path class="st0" d="M155,966.5c0-0.1,0.1-0.2,0.2-0.3c0.2-0.2,0.2-0.4-0.1-0.4l-0.1,0c-0.1-0.1-0.1-0.3-0.1-0.4
		c0-11.6,0.1-22.4,0.3-32.6c0-0.2-0.1-0.5-0.2-0.7c-0.1-0.2-0.2-0.3-0.1-0.5c0.3-3.7-0.2-8-0.2-11c0-262.7,0-525.4,0-788.1l0-0.1
		l-0.2-0.2c-0.1-0.1-0.1-0.2-0.1-0.4c0.1-3.4,0.2-6.8,0.4-10.2c0.2-3.4,0.2-6.8,0.2-10.2c0-4.7,0-9.6,0-14.5c0-0.3,0.1-0.6,0.1-0.8
		c0.1-0.2,0.1-0.3,0.2-0.5c0.2-0.4,0-0.6-0.4-0.7c-15.4-2.7-30.6-6.2-45.6-10.6"/>
	<path class="st2" d="M109.2,84.3c-9.9-3-20.3-6.9-28.4-13.7"/>
	<path class="st3" d="M730,983.7c-58.5,13.6-117.8,22.5-177.7,26.7"/>
	<path class="st1" d="M552.3,1010.5c-20.8,1.4-39.8,2.3-57.1,2.5c-53,0.7-106.8-1.6-161.3-7"/>
	<path class="st3" d="M334,1006c-41.9-4-83.7-10-125.5-17.9"/>
	<path class="st4" d="M208.5,988.2c-22.7-4.3-45.7-9.7-69.1-16"/>
	<path class="st3" d="M110,960.3c7,8.7,19,8.7,29.3,11.9"/>
	<path class="st3" d="M155,966.5c-10-1.5-19-4.5-28-8.5c-6-2-13-3-18.6-5"/>
	<path class="st5" d="M109.2,84.3C107,84,106,86,106,87c2,287,0,573,0.6,859.7"/>
	<path class="st5" d="M866.9,737.2c1.2-0.3,4.1-0.6,8.6-0.9c9.4-0.6,20.7-2.3,34.2-5.2c17.7-3.7,34.5-9.3,50.3-16.9
		c33.2-15.8,60.1-39.1,80.6-69.9l0-0.2l-0.2,0l-3.1,1.2c-0.2,0.1-0.3,0.2-0.4,0.4c-0.2,0.4-0.5,0.5-0.9,0.4c-0.3-0.1-0.6,0-0.9,0.2
		l-0.1,0.2c-0.1,0.5-0.4,0.7-1,0.6c-0.5-0.1-0.9,0.1-1.1,0.6c-0.1,0.4-0.6,0.6-0.9,0.5c-1-0.3-1.7-0.1-2.2,0.7
		c-0.2,0.3-0.4,0.3-0.7,0.3c-0.5-0.2-0.9,0-1.1,0.5c-0.3,0.5-0.7,0.7-1.2,0.5c-0.8-0.3-1.5,0-1.9,0.7c-0.2,0.4-0.5,0.5-0.9,0.3
		c-1-0.3-1.7,0-2.2,0.8c-0.1,0.2-0.3,0.3-0.5,0.2c-0.6-0.2-1,0-1.3,0.6c-0.1,0.3-0.4,0.4-0.7,0.4l-2.8,0c-0.2,0-0.4,0.1-0.5,0.3
		l-0.1,0.3c-0.2,0.4-0.4,0.5-0.9,0.4c-0.9-0.3-1.6-0.1-2.1,0.6c-0.3,0.3-0.7,0.5-1.1,0.4c-0.9-0.3-1.5-0.1-2,0.6
		c-0.2,0.4-0.6,0.5-1,0.4c-1.3-0.3-2.3-0.1-3,0.7c-0.3,0.3-0.6,0.4-1,0.3c-1.3-0.3-2.3,0-3,0.7c-0.3,0.2-0.6,0.3-0.9,0.3
		c-1.2-0.2-2.3,0-3.2,0.8c-0.3,0.2-0.7,0.3-1,0.2c-1.5-0.3-2.7-0.1-3.8,0.6c-0.3,0.2-0.7,0.3-1.1,0.3l-3.7,0c-0.4,0-0.7,0.1-0.9,0.4
		l-0.2,0.2c-0.2,0.2-0.5,0.4-0.8,0.4l-5.4,0c-0.3,0-0.6,0.2-0.7,0.5c0,0.1-0.1,0.2-0.2,0.3c-0.2,0.2-0.4,0.2-0.6,0.2h-8.7
		c-0.3,0-0.5,0.1-0.6,0.4c0,0.1-0.1,0.2-0.1,0.3c-0.2,0.2-0.4,0.3-0.8,0.3c-5.5-0.1-10.8-0.1-16,0.1c-0.9,0-1.7-0.1-2.5-0.3
		c-1.1-0.3-2-0.4-2.6-0.1c-2.7,1.2-5.4,2.3-8.1,3.4c-16.6,6.6-33.8,9.8-51.5,9.8"/>
	<path class="st0" d="M888.3,675.9c-2.1-1-4-1.9-5.8-2.7c-14.5-6.8-28.6-14.2-42.2-22.4c-4.6-2.8-8.4-5.7-11.3-8.9
		c-0.3-0.4-0.6-0.8-0.8-1.2c-0.5-1.2-0.8-1.1-0.8,0.2l0.1,11.2"/>
	<path class="st5" d="M827.5,652c-0.8,2.3-1.2,5.1-1.4,8.5c-1,26.5-1.8,53.2-2.4,80"/>
	<path class="st5" d="M816.2,937.1c-2.2,4.9-1.2,10.9-4.1,15.8"/>
	<path class="st3" d="M812.1,952.8l-0.3-0.1h-0.1c-12.7,5.6-25.8,10.3-39.5,14c-19.4,5.3-38.5,9.5-57.5,12.8
		c-40.9,7-84.1,12.3-129.4,15.8c-47.1,3.7-89.3,5.9-126.6,6.7c-6.7,0.1-13.4,0.2-20,0.2c-66.9,0-133.3-5.9-199.2-17.5"/>
	<path class="st4" d="M730,983.7c26-6.4,51.7-13.2,77.2-21.9c0.6-0.2,1.1-0.6,1.3-1.2l3.6-7.9"/>
	<path class="st2" d="M888.3,675.9c-10.5,0.7-20.9-0.6-31.3-4.1c-12.1-4.1-21.9-10.6-29.5-19.8"/>
	<path class="st2" d="M173.2,45.9c-9.9,1.4-20,3-30.2,5c-9.2,1.7-17.8,4.3-25.8,7.7c-4.4,1.8-10,6.8-3.5,11.1
		c3.1,2,6.5,3.6,10.2,4.8c6.3,2,13,3.7,19.9,5c9.7,1.9,19.4,3.5,29.2,4.9"/>
	<path class="st0" d="M173,84.4c25.6,3.4,50.4,5.8,74.3,7.3c3.3,0.2,6.1,0.4,8.3,0.6c3.5,0.3,6.3,0.5,8.3,0.6
		c9.2,0.4,18.8,1,28.8,1.7c3.5,0.2,7,0.4,10.6,0.6c3.4,0.1,7,0.3,10.6,0.5c36,1.6,71.7,2.5,110.3,3c6.9,0.1,13.8,0.1,20.7-0.1"/>
	<path class="st2" d="M445,98.4c59.7,0.4,119.4-0.9,179-3.9c18.6-0.9,37.6-2.2,56.9-3.8"/>
	<path class="st1" d="M680.9,90.7c18.5-1.5,37.3-3.4,56.5-5.8c12.3-1.5,24.4-3.5,36.2-6c5.4-1.1,10.9-2.5,16.6-4.3
		c4.2-1.3,9.1-3.2,12.4-6.2c2.5-2.4,1.7-5.7-0.9-7.5c-2.9-2.1-6.4-3.7-10.3-5c-14.4-4.6-29.3-7.1-44.3-9.2
		c-22.7-3.2-45.4-5.6-68.3-7.3"/>
	<path class="st2" d="M678.7,39.4c-13.4-1.1-24-1.9-31.9-2.4c-65.2-3.8-130.5-5.5-195.8-5.2"/>
	<path class="st0" d="M451,31.8c-63.3-0.1-127.6,1.9-193,6.1c-29.3,1.9-57.6,4.5-84.8,8"/>
	<path class="st5" d="M451,31.8l-4.2,0.2l0,0l0,0c0.1,0.1,0.2,0.1,0.2,0.2c0.1,0.2,0.1,0.3,0.1,0.5v62.5c0,0.8-0.5,1.5-1.3,1.7
		c-0.7,0.2-1.4,0.3-2.2,0.4c-1,0.1-1,0.2,0,0.3c0.2,0,0.6,0.3,1.3,0.8"/>
	<path class="st5" d="M173,84.4l0.2-0.2l0.1-0.2c0-0.3-0.1-0.3-0.3-0.2l-0.1,0l0,0l0.3-37.8"/>
	<path class="st4" d="M678.7,39.4c-0.4,0.4-0.1,0.6,1.1,0.4c0.6-0.1,1.2,0.3,1.3,0.9l0,0.2l-0.2,49.8"/>
	<path class="st5" d="M948.5,212.6c-15.9-2.1-29.2-3.1-40-3.1c-5.3,0-11.2-0.2-15.7-0.2c-18.1,0.2-36.8,0.8-56,1.5
		c-0.4,0-0.6,0.2-0.6,0.6l-0.4,46.7c0,0.2,0,0.3-0.1,0.5c-0.1,0.1-0.1,0.2-0.1,0.3c0,7,0.1,14.2,0,21.3c0,0.4-0.2,0.6-0.5,0.8
		l-0.3,0.2c-0.4,0.2-0.6,0.5-0.6,0.9l-0.7,31.6c0,0.3,0.1,0.6,0.3,0.8c0.3,0.3,0.4,0.8,0.4,1.5"/>
	<path class="st5" d="M944,259.8c-0.1-0.3,0-0.5,0.2-0.6V259L944,259c-0.3,0-0.3-0.1,0-0.2c0.4-0.2,0.7-0.1,1,0.1
		c0.1,0.1,0.3,0.2,0.5,0.2h26c0.3,0,0.5,0.1,0.5,0.5c0,0.1,0,0.2,0.1,0.3c0.3,0.2,0.5,0.3,0.9,0.2c2.6,0,5,0,7.4,0
		c0.3,0,0.6,0.2,0.6,0.5c0,0.1,0.1,0.2,0.2,0.2c0.3,0.2,0.5,0.3,0.8,0.2c1.9,0,3.7,0,5.4,0c0.3,0,0.5,0.2,0.6,0.5
		c0,0.1,0.1,0.2,0.2,0.3c0.3,0.2,0.5,0.2,0.8,0.2c1.6,0,3.1,0,4.5,0c0.2,0,0.3,0.1,0.4,0.2l0.1,0.3c0.2,0.3,0.4,0.5,0.8,0.5h2.5
		c0.2,0,0.4,0.1,0.6,0.3l0.1,0.2c0.1,0.3,0.4,0.5,0.8,0.5h3.3c0.3,0,0.6,0.1,0.8,0.3c0.7,0.7,1.8,0.9,3.1,0.6
		c0.4-0.1,0.7,0.1,0.9,0.4c0.4,0.7,1.1,0.9,2.1,0.7c0.4-0.1,0.6,0,0.9,0.3c0.6,0.8,1.6,1,3,0.7c0.4-0.1,0.9,0.1,1.2,0.5
		c0.4,0.7,1.1,0.9,2,0.6c0.4-0.1,0.8,0.1,1,0.4c0.3,0.6,0.9,0.8,1.6,0.6c0.6-0.2,1.1,0,1.4,0.5c0.5,0.6,1.1,0.8,1.9,0.5
		c0.5-0.2,0.9,0,1.2,0.5c0.2,0.4,0.5,0.5,0.9,0.5c0.4-0.1,0.9,0.1,1.1,0.4c0.4,0.6,1,0.8,1.7,0.6c0.4-0.2,0.9,0,1.2,0.4
		c0.5,0.7,1.1,0.9,2,0.6c0.4-0.1,0.9,0.1,1.1,0.5c0.3,0.5,0.7,0.7,1.3,0.6c0.4-0.1,0.6,0.1,0.8,0.5c0.1,0.4,0.3,0.6,0.8,0.5
		c0.4-0.1,0.8,0,1.1,0.4c0.6,0.7,1.4,0.9,2.4,0.6c0.3-0.1,0.5,0,0.6,0.3c0.2,0.6,0.6,0.8,1.2,0.7c0.4-0.1,0.7,0.1,0.9,0.5
		c0.2,0.6,0.7,0.7,1.3,0.6c0.3-0.1,0.6,0.1,0.7,0.4l0,0c0.1,0.5,0.5,0.7,1,0.6c0.5-0.1,0.8,0.1,1,0.5c0.3,0.5,0.7,0.7,1.3,0.6
		c0.4-0.1,0.6,0.1,0.7,0.5c0,0.1,0.1,0.2,0.1,0.2c0.3,0.2,0.6,0.2,0.9,0l0.9-0.9"/>
	<path class="st0" d="M1047.8,280l8.3,14.5c0.6,1,1,0.9,1.3-0.2c2.2-8.3-1.1-17.5-5.4-24.8c-3.9-6.6-8.6-12.9-14.3-18.9
		c-20.3-21.6-47.4-42.6-78.4-42.6c-4.8,0-9.9,0.7-15.2,2.2c-0.4,0.1-0.5,0.3-0.4,0.7l0.1,0.3c0.2,0.5,0.5,0.6,1,0.5
		c1.2-0.3,2.5-0.1,3.7,0.9"/>
	<path class="st2" d="M1047.8,280c-18.6-28.7-46.6-50.1-78.5-62.2c-6.7-2.5-13.6-4.3-20.8-5.1"/>
	<path class="st0" d="M1018.2,303.8c-6.8-20.4-22.2-35.8-44.3-37.2c-0.6,0-0.6,0.1-0.1,0.4c13.4,7.5,27.4,17,38.1,28.4
		c2.4,2.6,4.4,5.5,6,8.6c0,0.1,0.1,0.1,0.2,0.1h0C1018.2,303.9,1018.2,303.9,1018.2,303.8"/>
	<path class="st0" d="M334.1,974.4c14.5,4,28.7,7.1,42.7,9.3c12.4,1.9,25.1,3.3,38.1,4.2c30.4,2.1,61.5,2.2,93.1,0.2
		c38.6-2.4,76.7-7.2,114.4-14.2c0.2,0,0.4-0.1,0.6-0.2c0.3-0.2,0.3-0.3-0.1-0.2c-3.3,0.4-6.5,0.7-9.8,0.9
		c-44.4,3.4-87.6,5.6-129.8,6.8c-35,1-69.2,0.9-103.8-1.3c-11.7-0.7-23.1-2-34.1-3.7c-2-0.3-4-0.7-5.8-1.2c-1.8-0.5-3.8-0.9-5.9-1.4
		l-0.1,0.1l-0.1,0.2C333.7,974.1,333.8,974.3,334.1,974.4"/>
	<path class="st6" d="M734.3,138.7 M698.6,102.7L698.6,102.7c-15.1,1.8-29.9,3.2-44.2,4.4c-54.7,4.6-112.1,7.1-172.2,7.7
		c-67.2,0.6-128.3-0.8-183.1-4.3c-20-1.3-40-2.8-59.9-4.7c-0.4,0-0.7,0.2-0.7,0.6l0,0.1c0.1,12.1,0.2,24.3,0.3,36.5
		c0,0.3,0,0.5-0.1,0.8c-0.1,0.4-0.2,0.8-0.2,1.2c0.1,295.2,0,573.8-0.2,835.8c0,0.8,0,1.5,0,2.2c0,0.3,0.2,0.5,0.5,0.6
		c0.6,0.2,0.9,0.6,0.9,1.1c-28.5-5-56.6-11.1-84.6-18.3c0-0.1,0.1-0.2,0.2-0.3c0.2-0.2,0.2-0.4-0.1-0.4l-0.1,0
		c-0.1-0.1-0.1-0.3-0.1-0.4c0-11.6,0.1-22.4,0.3-32.6c0-0.2-0.1-0.5-0.2-0.7c-0.1-0.2-0.2-0.3-0.1-0.5c0.3-3.7-0.2-8-0.2-11
		c0-262.7,0-525.4,0-788.1l0-0.1l-0.2-0.2c-0.1-0.1-0.1-0.2-0.1-0.4c0.1-3.4,0.2-6.8,0.4-10.2c0.2-3.4,0.2-6.8,0.2-10.2
		c0-4.7,0-9.6,0-14.5c0-0.3,0.1-0.6,0.1-0.8c0.1-0.2,0.1-0.3,0.2-0.5c0.2-0.4,0-0.6-0.4-0.7c-15.4-2.7-30.6-6.2-45.6-10.6
		c-9.9-3-20.3-6.9-28.4-13.7C67.5,56,98.6,45.9,107.5,43.2c8.9-2.8,17.7-5.1,26.3-6.9c19.5-4.1,39.3-7.5,59.2-10
		c25.6-3.3,51-5.9,76.2-7.8c47.3-3.6,95.3-5.7,143.9-6.3c1.2,0,2.4,0.2,3.5-0.1c0.6-0.1,1.1-0.2,1.7-0.2c24.2,0,48.4,0,72.6,0
		c0.4,0,0.8,0,1.2,0c58.3,0.7,116.4,3.7,174.5,8.9c34.1,3.1,68.7,7.4,102.5,14.2c10.2,2,20,4.5,29.5,7.3c10.3,3,19.7,7.2,28.4,12.4
		c2.7,3,4.1,5.9,4.2,8.7c0.1,4.2-3.4,7.7-6.7,9.8c-3.7,2.5-7.9,4.7-12.6,6.6c-7.6,3-15.7,5.6-24.5,7.8c-15.3,3.8-31.2,6.9-47.8,9.4
		c-0.5,0.1-0.8,0.4-0.9,0.9 M702.4,128.4c-0.7,0-1.3-0.6-1.4-1.3 M173.2,45.9c-9.9,1.4-20,3-30.2,5c-9.2,1.7-17.8,4.3-25.8,7.7
		c-4.4,1.8-10,6.8-3.5,11.1c3.1,2,6.5,3.6,10.2,4.8c6.3,2,13,3.7,19.9,5c9.7,1.9,19.4,3.5,29.2,4.9c25.6,3.4,50.4,5.8,74.3,7.3
		c3.3,0.2,6.1,0.4,8.3,0.6c3.5,0.3,6.3,0.5,8.3,0.6c9.2,0.4,18.8,1,28.8,1.7c3.5,0.2,7,0.4,10.6,0.6c3.4,0.1,7,0.3,10.6,0.5
		c36,1.6,71.7,2.5,110.3,3c6.9,0.1,13.8,0.1,20.7-0.1c59.7,0.4,119.4-0.9,179-3.9c18.6-0.9,37.6-2.2,56.9-3.8
		c18.5-1.5,37.3-3.4,56.5-5.8c12.3-1.5,24.4-3.5,36.2-6c5.4-1.1,10.9-2.5,16.6-4.3c4.2-1.3,9.1-3.2,12.4-6.2
		c2.5-2.4,1.7-5.7-0.9-7.5c-2.9-2.1-6.4-3.7-10.3-5c-14.4-4.6-29.3-7.1-44.3-9.2c-22.7-3.2-45.4-5.6-68.3-7.3
		c-13.4-1.1-24-1.9-31.9-2.4c-65.2-3.8-130.5-5.5-195.8-5.2c-63.3-0.1-127.6,1.9-193,6.1C228.7,39.7,200.4,42.4,173.2,45.9z"/>
	<path class="st7" d="M451,31.8l-4.2,0.2l0,0l0,0c0.1,0.1,0.2,0.1,0.2,0.2c0.1,0.2,0.1,0.3,0.1,0.5v62.5c0,0.8-0.5,1.5-1.3,1.7
		c-0.7,0.2-1.4,0.3-2.2,0.4c-1,0.1-1,0.2,0,0.3c0.2,0,0.6,0.3,1.3,0.8c-6.9,0.1-13.8,0.2-20.7,0.1c-38.6-0.5-74.2-1.4-110.3-3
		c-3.7-0.2-7.2-0.3-10.6-0.5c-3.6-0.1-7.2-0.3-10.6-0.6c-10-0.7-19.6-1.3-28.8-1.7c-2-0.1-4.8-0.3-8.3-0.6c-2.3-0.2-5-0.4-8.3-0.6
		c-23.9-1.5-48.6-3.9-74.3-7.3l0.2-0.2l0.1-0.2c0-0.3-0.1-0.3-0.3-0.2l-0.1,0l0,0l0.3-37.8c27.2-3.5,55.5-6.1,84.8-8
		C323.4,33.7,387.7,31.7,451,31.8z"/>
	<path class="st8" d="M451,31.8c65.3-0.3,130.6,1.4,195.8,5.2c7.9,0.5,18.6,1.2,31.9,2.4c-0.4,0.4-0.1,0.6,1.1,0.4
		c0.6-0.1,1.2,0.3,1.3,0.9l0,0.2l-0.2,49.8c-19.3,1.6-38.3,2.8-56.9,3.8c-59.6,3-119.3,4.3-179,3.9c-0.7-0.5-1.2-0.8-1.3-0.8
		c-1-0.1-1-0.2,0-0.3c0.8-0.1,1.5-0.2,2.2-0.4c0.7-0.2,1.3-0.9,1.3-1.7V32.8c0-0.2,0-0.3-0.1-0.5c-0.1-0.1-0.1-0.2-0.2-0.2l0,0l0,0
		L451,31.8z"/>
	<path class="st9" d="M678.7,39.4c22.9,1.7,45.6,4.2,68.3,7.3c15,2.1,29.9,4.6,44.3,9.2c3.9,1.3,7.4,2.9,10.3,5
		c2.7,1.9,3.5,5.2,0.9,7.5c-3.2,3-8.2,4.9-12.4,6.2c-5.6,1.7-11.2,3.2-16.6,4.3c-11.9,2.4-23.9,4.4-36.2,6
		c-19.1,2.4-38,4.3-56.5,5.8l0.2-49.8c0-0.6-0.5-1.1-1.1-1.1l-0.2,0C678.6,40,678.3,39.8,678.7,39.4z"/>
	<path class="st8" d="M173.2,45.9l-0.3,37.9l0.1,0l0,0c0.2-0.1,0.3,0,0.3,0.2l-0.1,0.2l-0.2,0.2c-9.8-1.4-19.5-3-29.2-4.9
		c-6.9-1.3-13.6-3-19.9-5c-3.7-1.2-7.1-2.8-10.2-4.8c-6.6-4.3-0.9-9.2,3.5-11.1c8-3.4,16.7-6,25.8-7.7
		C153.2,48.9,163.3,47.3,173.2,45.9z"/>
	<path class="st7" d="M734.8,138.8c-0.1,0-0.2,0.1-0.3,0.1 M698.5,102.7c-15.1,1.8-29.8,3.2-44.2,4.4c-54.7,4.6-112.1,7.1-172.2,7.7
		c-67.2,0.6-128.3-0.8-183.1-4.3c-20-1.3-40-2.8-59.9-4.7l-0.1,0c-0.4,0-0.7,0.3-0.6,0.7c0.1,12.1,0.2,24.3,0.3,36.5
		c0,0.3,0,0.5-0.1,0.8c-0.1,0.4-0.2,0.8-0.2,1.2c0.1,295.2,0,573.8-0.2,835.8c0,0.8,0,1.5,0,2.2c0,0.3,0.2,0.5,0.5,0.6
		c0.6,0.2,0.9,0.6,0.9,1.1c65.9,11.6,132.3,17.4,199.2,17.5c6.6,0,13.3-0.1,20-0.2c37.3-0.8,79.5-3.1,126.6-6.7
		c45.3-3.5,88.5-8.8,129.4-15.8c18.9-3.2,38.1-7.5,57.5-12.8c13.7-3.7,26.8-8.4,39.5-14h0.1l0.3,0.1c0,0.2,0.1,0.4,0.3,0.5
		c0.1,0,0.2,0.1,0.3,0.1c0.3,0,0.5-0.3,0.4-0.5c-0.1-0.6,0-1.2,0.1-1.9c1.1-5.1,2.2-10.3,3.3-15.4c0.9-16,1.9-30.9,2.7-35.5
		c1.3-51.7,2.5-103.5,3.8-155.2c0-0.5,0.2-1.2,0.5-2.1c0.3-0.8,0.4-1.5,0.2-2.3c0.6-26.8,1.4-53.4,2.4-80c0.1-3.4,0.6-6.2,1.4-8.5
		l-0.1-11.2c0-1.3,0.2-1.4,0.8-0.2c0.2,0.5,0.5,0.9,0.8,1.2c2.9,3.2,6.7,6.1,11.3,8.9c13.6,8.2,27.7,15.7,42.2,22.4
		c1.8,0.8,3.8,1.8,5.8,2.7c17.7,0,34.9-3.3,51.5-9.8c2.7-1.1,5.4-2.2,8.1-3.4c0.6-0.3,1.5-0.2,2.6,0.1c0.8,0.2,1.6,0.3,2.5,0.3
		c5.2-0.2,10.6-0.2,16-0.1c0.3,0,0.6-0.1,0.8-0.3c0.1-0.1,0.1-0.2,0.1-0.3c0.1-0.3,0.3-0.4,0.6-0.4h8.7c0.2,0,0.4-0.1,0.6-0.2
		c0.1-0.1,0.2-0.2,0.2-0.3c0.1-0.3,0.4-0.5,0.7-0.5l5.4,0c0.3,0,0.6-0.1,0.8-0.4l0.2-0.2c0.3-0.3,0.6-0.4,0.9-0.4l3.7,0
		c0.4,0,0.8-0.1,1.1-0.3c1.1-0.7,2.3-0.9,3.8-0.6c0.4,0.1,0.8,0,1-0.2c0.9-0.7,2-1,3.2-0.8c0.3,0.1,0.6,0,0.9-0.3
		c0.8-0.8,1.8-1,3-0.7c0.4,0.1,0.7,0,1-0.3c0.7-0.8,1.7-1,3-0.7c0.4,0.1,0.8,0,1-0.4c0.4-0.7,1.1-0.9,2-0.6c0.4,0.1,0.8,0,1.1-0.4
		c0.5-0.7,1.2-0.9,2.1-0.6c0.4,0.1,0.7,0,0.9-0.4l0.1-0.3c0.1-0.2,0.3-0.3,0.5-0.3l2.8,0c0.3,0,0.5-0.1,0.7-0.4
		c0.3-0.5,0.7-0.7,1.3-0.6c0.2,0.1,0.4,0,0.5-0.2c0.5-0.8,1.2-1.1,2.2-0.8c0.4,0.1,0.7,0,0.9-0.3c0.4-0.7,1.1-0.9,1.9-0.7
		c0.5,0.2,0.9,0,1.2-0.5c0.2-0.5,0.6-0.6,1.1-0.5c0.3,0.1,0.5,0,0.7-0.3c0.5-0.8,1.2-1,2.2-0.7c0.4,0.1,0.8-0.1,0.9-0.5
		c0.2-0.5,0.6-0.7,1.1-0.6c0.5,0.1,0.8-0.1,1-0.6l0.1-0.2c0.3-0.2,0.6-0.3,0.9-0.2c0.4,0.1,0.7,0,0.9-0.4c0.1-0.2,0.2-0.3,0.4-0.4
		l3.1-1.2l0.2,0l0,0.2c-20.5,30.8-47.3,54.1-80.6,69.9c-15.8,7.5-32.6,13.1-50.3,16.9c-13.4,2.8-24.8,4.5-34.2,5.2
		c-4.5,0.3-7.4,0.6-8.6,0.9c25.9,0,51.4-3.1,76.4-9.4c15.3-3.9,30.1-9.1,44.2-15.8c41.2-19.4,71.8-49.1,91.8-89.2
		c2.9-5.9,5.3-11.8,7.2-17.7c15.6-49.7,24.7-99.7,27.2-150c0.6-12.3,0.6-25.7,0.2-38.1c-0.8-26.5-4.3-52.3-10.4-77.4
		c-7.6-31-20-61.3-39.1-86.6c-14.9-19.8-33.4-35.2-55.5-46.4c-36.7-18.6-79-23.8-119.6-24.7c-14.3-0.3-29.3-0.2-45,0.4
		c-1.8,0.1-4.2-0.4-7.1-1.5c-0.3-0.1-0.5-0.3-0.5-0.7l2.9-118.2c0-0.4-0.1-0.7-0.4-0.9c-3.5-2.6-7.5-4.7-12-6.5
		c2.7,3,4.1,5.9,4.2,8.7c0.1,4.2-3.4,7.7-6.7,9.8c-3.7,2.5-7.9,4.7-12.6,6.6c-7.6,3-15.7,5.6-24.5,7.8c-15.3,3.8-31.2,6.9-47.8,9.4
		 M623.1,973.6c-0.2,0.1-0.4,0.2-0.6,0.2c-37.7,7.1-75.8,11.8-114.4,14.2c-31.7,2-62.7,1.9-93.1-0.2c-13-0.9-25.7-2.3-38.1-4.2
		c-14-2.2-28.2-5.3-42.7-9.3c-0.3-0.1-0.4-0.3-0.3-0.5l0.1-0.2l0.1-0.1c2.1,0.5,4.1,0.9,5.9,1.4c1.9,0.5,3.8,0.9,5.8,1.2
		c11,1.7,22.4,3,34.1,3.7c34.5,2.2,68.7,2.3,103.8,1.3c42.1-1.2,85.4-3.5,129.8-6.8c3.3-0.2,6.5-0.6,9.8-0.9
		C623.4,973.3,623.4,973.4,623.1,973.6z M1057.4,294.2c-0.3,1.1-0.7,1.1-1.3,0.2l-8.3-14.5l-0.9,0.9c-0.3,0.3-0.6,0.3-0.9,0
		c-0.1-0.1-0.1-0.1-0.1-0.2c0-0.4-0.3-0.6-0.7-0.5c-0.6,0.1-1-0.1-1.3-0.6c-0.2-0.4-0.6-0.6-1-0.5c-0.5,0.1-0.9-0.1-1-0.6l0,0
		c-0.1-0.3-0.4-0.5-0.7-0.4c-0.6,0.2-1,0-1.3-0.6c-0.1-0.3-0.5-0.5-0.9-0.5c-0.6,0.1-1-0.1-1.2-0.7c-0.1-0.3-0.3-0.4-0.6-0.3
		c-1,0.3-1.8,0.1-2.4-0.6c-0.3-0.3-0.7-0.5-1.1-0.4c-0.4,0.1-0.7-0.1-0.8-0.5c-0.1-0.4-0.4-0.5-0.8-0.5c-0.6,0.1-1-0.1-1.3-0.6
		c-0.2-0.4-0.7-0.6-1.1-0.5c-0.9,0.3-1.5,0.1-2-0.6c-0.3-0.4-0.8-0.5-1.2-0.4c-0.7,0.3-1.3,0.1-1.7-0.6c-0.2-0.4-0.7-0.5-1.1-0.4
		c-0.4,0.1-0.7-0.1-0.9-0.5c-0.2-0.5-0.6-0.7-1.2-0.5c-0.8,0.2-1.4,0.1-1.9-0.5c-0.4-0.5-0.9-0.6-1.4-0.5c-0.7,0.2-1.3,0-1.6-0.6
		c-0.2-0.4-0.6-0.5-1-0.4c-0.9,0.3-1.5,0.1-2-0.6c-0.2-0.4-0.7-0.6-1.2-0.5c-1.3,0.4-2.3,0.1-3-0.7c-0.2-0.3-0.5-0.4-0.9-0.3
		c-0.9,0.3-1.6,0-2.1-0.7c-0.2-0.3-0.6-0.5-0.9-0.4c-1.3,0.3-2.3,0.1-3.1-0.6c-0.2-0.2-0.5-0.3-0.8-0.3h-3.3c-0.4,0-0.6-0.2-0.8-0.5
		l-0.1-0.2c-0.1-0.2-0.3-0.3-0.6-0.3h-2.5c-0.4,0-0.6-0.2-0.8-0.5l-0.1-0.3c-0.1-0.2-0.2-0.2-0.4-0.2c-1.4,0-2.9,0-4.5,0
		c-0.3,0-0.6-0.1-0.8-0.2c-0.1-0.1-0.1-0.1-0.2-0.3c-0.1-0.3-0.3-0.5-0.6-0.5c-1.7,0-3.5,0-5.4,0c-0.3,0-0.6-0.1-0.8-0.2
		c-0.1-0.1-0.1-0.1-0.2-0.2c-0.1-0.3-0.3-0.5-0.6-0.5c-2.4,0-4.8,0-7.4,0c-0.3,0-0.6-0.1-0.9-0.2c-0.1-0.1-0.2-0.2-0.1-0.3
		c0-0.3-0.1-0.5-0.5-0.5h-26c-0.2,0-0.4-0.1-0.5-0.2c-0.3-0.2-0.6-0.3-1-0.1c-0.2,0.1-0.2,0.2,0,0.2l0.1,0.1v0.1
		c-0.2,0.2-0.2,0.4-0.2,0.6c77.4,18.3,98.5,95.5,99.6,165.2c0.7,41.3-4.6,83.1-13.1,123.5c-5.3,25-15.6,50.8-32.7,70.3
		c-20.6,23.6-46.8,37-78.7,40.1c-28.1,2.8-63.3-3.7-84.4-23.5c-3.5-3.3-5.8-7-8.6-10.8c-0.1-0.2-0.2-0.4-0.2-0.7l7.4-307.5
		c0-0.3,0.2-0.5,0.5-0.5c0.1,0,0.3,0,0.4,0c0-0.6-0.1-1.1-0.4-1.5c-0.2-0.2-0.3-0.5-0.3-0.8l0.7-31.6c0-0.4,0.2-0.7,0.6-0.9l0.3-0.2
		c0.3-0.2,0.5-0.4,0.5-0.8c0-7.2,0-14.3,0-21.3c0-0.1,0-0.2,0.1-0.3c0.1-0.1,0.1-0.3,0.1-0.5l0.4-46.7c0-0.4,0.2-0.6,0.6-0.6
		c19.3-0.8,37.9-1.3,56-1.5c4.5-0.1,10.4,0.2,15.7,0.2c10.8,0,24.2,1.1,40,3.1c-1.3-0.9-2.5-1.2-3.7-0.9c-0.5,0.1-0.8,0-1-0.5
		l-0.1-0.3c-0.1-0.4,0-0.6,0.4-0.7c5.3-1.5,10.4-2.2,15.2-2.2c31.1-0.1,58.1,20.9,78.4,42.6c5.6,6,10.4,12.3,14.3,18.9
		C1056.2,276.8,1059.6,285.9,1057.4,294.2z M1018.2,303.8c0,0.1,0,0.2-0.1,0.2h0c-0.1,0-0.2,0-0.2-0.1c-1.6-3.2-3.6-6.1-6-8.6
		c-10.8-11.4-24.7-20.8-38.1-28.4c-0.5-0.3-0.5-0.4,0.1-0.4C996,268,1011.4,283.3,1018.2,303.8z"/>
	<path class="st8" d="M80.8,70.7l20.1,836.3l0.1,0l0.1,0.1c0,0.4,0,0.7,0,1.1c0.1,0.5,0.1,1.1,0.1,1.6c0,0.2,0,0.4,0,0.6
		c0.1,3.5,0.2,6.9,0.2,10.2c0,2,0.1,3.9,0.4,5.7l0,0.1c0.2,1.2,0.4,2.3,0.6,3.4c1.2,5.3,2.5,10.8,3.7,16.4c0.2,0.2,0.3,0.4,0.4,0.6
		c0.1,0,0.1-0.1,0.2-0.2l0.2-0.2l0.1-0.1V758.9c0-0.2,0-0.5-0.1-0.7c-0.1-0.1-0.1-0.3-0.1-0.5c0-8.4,0-17,0-26c0-0.2,0-0.3,0.1-0.5
		c0.1-0.2,0.1-0.5,0.1-0.8V611.8c0-0.1,0-0.1-0.1-0.2c-0.1-0.3-0.2-0.5-0.2-0.8c0.1-20.3,0.1-40.7,0.2-61.1c0-2,0-4.1-0.2-6.1
		c-0.2-2.6,0.2-5,0.2-7.6c0-33.8,0-67.6,0-101.3c0-1.5-0.3-3-0.3-4.5c0.1-2.6,0.1-5.3,0-8.2c-0.1-1.6,0.2-3,0.3-4.6
		c0-42.4,0-84.7,0-127.1c0-0.6-0.3-1-0.3-1.7c0.3-63.1,0.4-131,0.2-203.6l0-0.1c0-0.4,0.4-0.6,0.8-0.6c0.3,0,0.4,0.1,0.4,0.3
		c0,0.4,0.1,0.5,0.5,0.3c0.2-0.1,0.5-0.3,0.7-0.4C99.3,81.3,88.9,77.4,80.8,70.7z"/>
	<path class="st7" d="M155.1,965.7L155.1,965.7c-0.2-0.2-0.2-0.3-0.2-0.5c0-11.6,0.1-22.4,0.3-32.6c0-0.2-0.1-0.5-0.2-0.7
		c-0.1-0.2-0.2-0.3-0.1-0.5c0.3-3.7-0.2-8-0.2-11V132.4l0-0.1l-0.2-0.2c-0.1-0.1-0.1-0.2-0.1-0.4c0.1-3.4,0.2-6.8,0.4-10.2
		c0.2-3.4,0.2-6.8,0.2-10.2c0-4.7,0-9.6,0-14.5c0-0.3,0.1-0.6,0.1-0.8c0.1-0.2,0.1-0.3,0.2-0.5c0.2-0.4,0-0.6-0.4-0.7
		c-15.4-2.7-30.6-6.2-45.6-10.6c-0.2,0.1-0.4,0.3-0.7,0.4c-0.4,0.2-0.5,0.1-0.5-0.3c0-0.2-0.1-0.3-0.4-0.3l-0.1,0
		c-0.4,0-0.7,0.3-0.7,0.7c0.1,72.6,0.1,140.5-0.2,203.6c0,0.7,0.3,1.1,0.3,1.7c0,42.4,0,84.7,0,127.1c0,1.5-0.3,3-0.3,4.6
		c0.1,2.9,0.1,5.6,0,8.2c-0.1,1.5,0.3,3,0.3,4.5c0,33.7,0,67.5,0,101.3c0,2.6-0.4,5-0.2,7.6c0.1,2,0.2,4.1,0.2,6.1
		c-0.1,20.4-0.2,40.8-0.2,61.1c0,0.3,0.1,0.6,0.2,0.8c0.1,0.1,0.1,0.2,0.1,0.2v118.8c0,0.3,0,0.5-0.1,0.8c-0.1,0.2-0.1,0.3-0.1,0.5
		c0,9,0,17.6,0,26c0,0.2,0,0.3,0.1,0.5c0.1,0.2,0.1,0.4,0.1,0.7v187.5l-0.1,0.1l-0.2,0.2c-0.1,0.1-0.2,0.2-0.2,0.2
		c0.3,0.6,0.5,1.2,0.6,1.9c0.4,0.9,0.5,1.9,0.4,2.9c0.1,0.3,0.1,0.7,0.1,1c0.1,0.1,0.1,0.2,0.2,0.3c0.1-0.2,0.3-0.2,0.5-0.2
		c15.6,5.2,31.2,9.8,46.9,13.8c0-0.1,0.1-0.2,0.2-0.3C155.4,966,155.4,965.8,155.1,965.7z"/>
	<path class="st6" d="M1047.8,280c-18.6-28.7-46.6-50.1-78.5-62.2c-6.7-2.5-13.6-4.3-20.8-5.1c-1.3-0.9-2.5-1.2-3.7-0.9
		c-0.5,0.1-0.8,0-1-0.5l-0.1-0.3c-0.1-0.4,0-0.6,0.4-0.7c5.3-1.5,10.4-2.2,15.2-2.2c31.1-0.1,58.1,20.9,78.4,42.6
		c5.6,6,10.4,12.3,14.3,18.9c4.3,7.2,7.6,16.4,5.4,24.8c-0.3,1.1-0.7,1.1-1.3,0.2L1047.8,280z"/>
	<path class="st8" d="M948.5,212.6c7.1,0.9,14,2.6,20.8,5.1c31.9,12.1,59.9,33.5,78.5,62.2l-0.9,0.9c-0.3,0.3-0.6,0.3-0.9,0
		c-0.1-0.1-0.1-0.1-0.1-0.2c0-0.4-0.3-0.6-0.7-0.5c-0.6,0.1-1-0.1-1.3-0.6c-0.2-0.4-0.6-0.6-1-0.5c-0.5,0.1-0.9-0.1-1-0.6
		c-0.1-0.3-0.4-0.5-0.7-0.4l0,0c-0.6,0.2-1,0-1.3-0.6c-0.1-0.3-0.5-0.5-0.9-0.5c-0.6,0.1-1-0.1-1.2-0.7c-0.1-0.3-0.3-0.4-0.6-0.3
		c-1,0.3-1.8,0.1-2.4-0.6c-0.3-0.3-0.7-0.5-1.1-0.4c-0.4,0.1-0.7-0.1-0.8-0.5c-0.1-0.4-0.4-0.5-0.8-0.5c-0.6,0.1-1-0.1-1.3-0.6
		c-0.2-0.4-0.7-0.6-1.1-0.5c-0.9,0.3-1.5,0.1-2-0.6c-0.3-0.4-0.8-0.5-1.2-0.4c-0.7,0.3-1.3,0.1-1.7-0.6c-0.2-0.4-0.7-0.5-1.1-0.4
		c-0.4,0.1-0.7-0.1-0.9-0.5c-0.2-0.5-0.6-0.7-1.2-0.5c-0.8,0.2-1.4,0.1-1.9-0.5c-0.4-0.5-0.9-0.6-1.4-0.5c-0.7,0.2-1.3,0-1.6-0.6
		c-0.2-0.4-0.6-0.5-1-0.4c-0.9,0.3-1.5,0.1-2-0.6c-0.2-0.4-0.7-0.6-1.2-0.5c-1.3,0.4-2.3,0.1-3-0.7c-0.2-0.3-0.5-0.4-0.9-0.3
		c-0.9,0.3-1.6,0-2.1-0.7c-0.2-0.3-0.6-0.5-0.9-0.4c-1.3,0.3-2.3,0.1-3.1-0.6c-0.2-0.2-0.5-0.3-0.8-0.3h-3.3c-0.4,0-0.6-0.2-0.8-0.5
		l-0.1-0.2c-0.1-0.2-0.3-0.3-0.6-0.3h-2.5c-0.4,0-0.6-0.2-0.8-0.5l-0.1-0.3c-0.1-0.2-0.2-0.2-0.4-0.2c-1.4,0-2.9,0-4.5,0
		c-0.3,0-0.6-0.1-0.8-0.2c-0.1-0.1-0.1-0.1-0.2-0.3c-0.1-0.3-0.3-0.5-0.6-0.5c-1.7,0-3.5,0-5.4,0c-0.3,0-0.6-0.1-0.8-0.2
		c-0.1-0.1-0.1-0.1-0.2-0.2c-0.1-0.3-0.3-0.5-0.6-0.5c-2.4,0-4.8,0-7.4,0c-0.3,0-0.6-0.1-0.9-0.2c-0.1-0.1-0.2-0.2-0.1-0.3
		c0-0.3-0.1-0.5-0.5-0.5h-26c-0.2,0-0.4-0.1-0.5-0.2c-0.3-0.2-0.6-0.3-1-0.1c-0.2,0.1-0.2,0.2,0,0.2l0.1,0.1v0.1
		c-0.2,0.2-0.2,0.4-0.2,0.6c-11.4-2.9-22.7-4-34-3.2c-34.5,2.4-59,26.3-68.5,58.8c-0.1,0.3-0.3,0.5-0.6,0.5l-6.6,0
		c0-0.6-0.1-1.1-0.4-1.5c-0.2-0.2-0.3-0.5-0.3-0.8l0.7-31.6c0-0.4,0.2-0.7,0.6-0.9l0.3-0.2c0.3-0.2,0.5-0.4,0.5-0.8
		c0-7.2,0-14.3,0-21.3c0-0.1,0-0.2,0.1-0.3c0.1-0.1,0.1-0.3,0.1-0.5l0.4-46.7c0-0.4,0.2-0.6,0.6-0.6c19.3-0.8,37.9-1.3,56-1.5
		c4.5-0.1,10.4,0.2,15.7,0.2C919.3,209.5,932.7,210.6,948.5,212.6z"/>
	<path class="st6" d="M973.9,266.5c22.1,1.5,37.5,16.8,44.3,37.2c0,0.1,0,0.2-0.1,0.2h0c-0.1,0-0.2,0-0.2-0.1
		c-1.6-3.2-3.6-6.1-6-8.6c-10.8-11.4-24.7-20.8-38.1-28.4C973.2,266.6,973.3,266.5,973.9,266.5z"/>
	<path class="st6" d="M888.3,675.9c-10.5,0.7-20.9-0.6-31.3-4.1c-12.1-4.1-21.9-10.6-29.5-19.8l-0.1-11.2c0-1.3,0.2-1.4,0.8-0.2
		c0.2,0.5,0.5,0.9,0.8,1.2c2.9,3.2,6.7,6.1,11.3,8.9c13.6,8.2,27.7,15.7,42.2,22.4C884.3,674,886.3,674.9,888.3,675.9z"/>
	<path class="st8" d="M866.9,737.2c-10.3,0.2-20.7-0.1-31.1-1c-3.1-0.2-7.1,1.2-12,4.2c0.6-26.8,1.4-53.4,2.4-80
		c0.1-3.4,0.6-6.2,1.4-8.5c7.5,9.1,17.3,15.7,29.5,19.8c10.4,3.5,20.9,4.9,31.3,4.1c17.7,0,34.9-3.3,51.5-9.8
		c2.7-1.1,5.4-2.2,8.1-3.4c0.6-0.3,1.5-0.2,2.6,0.1c0.8,0.2,1.6,0.3,2.5,0.3c5.2-0.2,10.6-0.2,16-0.1c0.3,0,0.6-0.1,0.8-0.3
		c0.1-0.1,0.1-0.2,0.1-0.3c0.1-0.3,0.3-0.4,0.6-0.4h8.7c0.2,0,0.4-0.1,0.6-0.2c0.1-0.1,0.2-0.2,0.2-0.3c0.1-0.3,0.4-0.5,0.7-0.5
		l5.4,0c0.3,0,0.6-0.1,0.8-0.4l0.2-0.2c0.3-0.3,0.6-0.4,0.9-0.4l3.7,0c0.4,0,0.8-0.1,1.1-0.3c1.1-0.7,2.3-0.9,3.8-0.6
		c0.4,0.1,0.8,0,1-0.2c0.9-0.7,2-1,3.2-0.8c0.3,0.1,0.6,0,0.9-0.3c0.8-0.8,1.8-1,3-0.7c0.4,0.1,0.7,0,1-0.3c0.7-0.8,1.7-1,3-0.7
		c0.4,0.1,0.8,0,1-0.4c0.4-0.7,1.1-0.9,2-0.6c0.4,0.1,0.8,0,1.1-0.4c0.5-0.7,1.2-0.9,2.1-0.6c0.4,0.1,0.7,0,0.9-0.4l0.1-0.3
		c0.1-0.2,0.3-0.3,0.5-0.3l2.8,0c0.3,0,0.5-0.1,0.7-0.4c0.3-0.5,0.7-0.7,1.3-0.6c0.2,0.1,0.4,0,0.5-0.2c0.5-0.8,1.2-1.1,2.2-0.8
		c0.4,0.1,0.7,0,0.9-0.3c0.4-0.7,1.1-0.9,1.9-0.7c0.5,0.2,0.9,0,1.2-0.5c0.2-0.5,0.6-0.6,1.1-0.5c0.3,0.1,0.5,0,0.7-0.3
		c0.5-0.8,1.2-1,2.2-0.7c0.4,0.1,0.8-0.1,0.9-0.5c0.2-0.5,0.6-0.7,1.1-0.6c0.5,0.1,0.8-0.1,1-0.6l0.1-0.2c0.3-0.2,0.6-0.3,0.9-0.2
		c0.4,0.1,0.7,0,0.9-0.4c0.1-0.2,0.2-0.3,0.4-0.4l3.1-1.2c0.1,0,0.2,0,0.2,0.1l0,0.2c-20.5,30.8-47.3,54.1-80.6,69.9
		c-15.8,7.5-32.6,13.1-50.3,16.9c-13.4,2.8-24.8,4.5-34.2,5.2C871,736.6,868.1,736.9,866.9,737.2z"/>
	<path class="st9" d="M811.8,952.7h-0.1c-12.7,5.6-25.8,10.3-39.5,14c-19.4,5.3-38.5,9.5-57.5,12.8c-40.9,7-84.1,12.3-129.4,15.8
		c-47.1,3.7-89.3,5.9-126.6,6.7c-6.7,0.1-13.4,0.2-20,0.2c-66.9,0-133.3-5.9-199.2-17.5c-28.5-5-56.6-11.1-84.6-18.3
		c-15.7-4-31.3-8.6-46.9-13.8h-0.3c-0.1,0-0.2,0.1-0.2,0.2c0.2,0.5,0.3,1,0.4,1.5l2.4,6.6c0.1,0.3,0.3,0.6,0.7,0.8
		c3.3,1.8,6.6,3.4,10.2,4.6c6.3,2.2,12.4,4.1,18.1,5.8c23.4,6.4,46.4,11.7,69.1,16c41.8,7.9,83.6,13.9,125.5,17.9
		c54.5,5.4,108.3,7.7,161.3,7c17.2-0.2,36.3-1.1,57.1-2.5c59.9-4.2,119.2-13.1,177.7-26.7c26-6.4,51.7-13.2,77.2-21.9
		c0.6-0.2,1.1-0.6,1.3-1.2l3.6-7.9L811.8,952.7z"/>
	<path class="st6" d="M334.1,974.4c-0.3-0.1-0.4-0.3-0.3-0.5l0.1-0.2l0.1-0.1c2.1,0.5,4.1,0.9,5.9,1.4c1.9,0.5,3.8,0.9,5.8,1.2
		c11,1.7,22.4,3,34.1,3.7c34.5,2.2,68.7,2.3,103.8,1.3c42.1-1.2,85.4-3.5,129.8-6.8c3.3-0.2,6.5-0.6,9.8-0.9c0.4,0,0.4,0,0.1,0.2
		c-0.2,0.1-0.4,0.2-0.6,0.2c-37.7,7.1-75.8,11.8-114.4,14.2c-31.7,2-62.7,1.9-93.1-0.2c-13-0.9-25.7-2.3-38.1-4.2
		C362.8,981.5,348.6,978.4,334.1,974.4z"/>
</g>
</svg>
