<?xml version="1.0" encoding="utf-8"?>
<!-- Generator: Adobe Illustrator 25.0.0, SVG Export Plug-In . SVG Version: 6.00 Build 0)  -->
<svg version="1.1" id="Layer_1" xmlns="http://www.w3.org/2000/svg" xmlns:xlink="http://www.w3.org/1999/xlink" x="0px" y="0px"
	 viewBox="0 0 713 679" enable-background="new 0 0 713 679" xml:space="preserve">
<path fill="#777777" d="M313.35,631.37c-66.493,6.487-133.527,11.75-201.1,15.79c-14.593,0.873-29.677,1.553-45.25,2.04
	c-9.533,0.293-19.17,0.07-28.91-0.67c-6.513-0.5-12.403-1.787-17.67-3.86c-7.693-3.033-11.623-8.713-11.79-17.04
	c-0.107-5.447,0.217-10.197,0.97-14.25c2.35-12.65,11.57-22.47,23-28.4c3.9-2.027,9.087-4.083,15.56-6.17
	c27.56-8.89,55.18-19.85,78.94-35.33c20.9-13.61,39.87-30.49,60.52-45.47c9.44-6.85,17.55-13.61,25.79-22.12
	c15.267-15.76,24.067-35.113,26.4-58.06c1.693-16.653,2.83-30.1,3.41-40.34c2.593-45.5,3.477-89.207,2.65-131.12
	c-1-50.88-4.14-99.14-8.57-152.11c-0.253-3.013-0.387-5.993-0.4-8.94c-0.02-7.09,5.58-11.52,12.52-11.1
	c18.8,1.147,37.757,2.02,56.87,2.62c13.493,0.427,26.983,0.167,40.47-0.78c0.2-0.013,0.36-0.097,0.48-0.25
	c3.407-4.293,7.233-8.213,11.48-11.76c6.1-5.1,11.683-9.333,16.75-12.7c11.84-7.88,24.983-15.21,39.43-21.99
	c26.74-12.55,55.05-21.83,84.25-22.67c3.45-0.1,6.91,0.23,10.3,0.6c10.89,1.17,19.07,7.11,21.3,18.06
	c13.48,66.427,28.887,132.35,46.22,197.77c5.033,18.987,10.593,38.157,16.68,57.51c4.16,13.2,8.713,25.593,13.66,37.18
	c6.28,14.72,14.96,26.82,26.07,38.25c6.813,7.02,13.837,14.047,21.07,21.08c12.68,12.33,24.72,25.39,33.64,40.55
	c7.807,13.267,12.203,28.29,13.19,45.07c0.953,16.28-3.227,31.12-12.54,44.52c-3.633,5.227-7.477,10.073-11.53,14.54
	c-13.27,14.65-27.75,28.53-40.15,43.8c-14.68,18.08-26.44,38.66-34.62,60.66c-2.007,5.407-4.127,10.66-6.36,15.76
	c-3.14,7.19-6.95,13.62-14.01,17.12c-4.37,2.16-9.38,3.3-14.21,3.77c-20.32,1.967-41.91,3.457-64.77,4.47
	c-34.047,1.507-67.537,2.47-100.47,2.89c-0.54,0.007-1.08,0.01-1.62,0.01c-14.833,0.013-29.667,0.03-44.5,0.05
	c-1.17,0-2.25-0.31-3.42-0.32c-6.307-0.033-13.177-0.133-20.61-0.3c-3.227-0.067-6.263-0.247-9.11-0.54
	c-8.05-0.82-15.08-6.87-15.14-15.32c-0.06-9.293,1.77-16.587,5.49-21.88C314.043,631.517,313.923,631.31,313.35,631.37z
	 M501.55,44.28c5.35-4.47,9.99-9.33,13.43-15.01c1.37-2.24,3.54-8.53,0.1-10.21c-2.687-1.3-5.52-2.007-8.5-2.12
	c-13.087-0.5-26.017,0.827-38.79,3.98c-14.647,3.613-28.93,8.65-42.85,15.11c-3.3,1.53-6.72,2.56-9.92,4.41
	c-2.153,1.247-4.437,2.457-6.85,3.63c-8.06,3.913-16.237,8.527-24.53,13.84c-2.24,1.44-4.09,3.29-6.41,4.65
	c-1.667,0.967-3.31,2.113-4.93,3.44c-2.8,2.28-5.53,4.48-8.19,6.6c-5.09,4.06-10.18,9.4-12.29,15.68c-2.05,6.07,4.83,8.05,9.12,8.71
	c4.86,0.747,9.927,0.797,15.2,0.15c14.28-1.753,27.73-4.603,40.35-8.55c12.34-3.86,24.79-8.94,37.35-15.24
	c10.993-5.513,21.533-11.4,31.62-17.66C491.787,51.77,497.15,47.967,501.55,44.28z M510.18,49.97c-1.713,1.347-3.363,2.69-4.95,4.03
	c-1.827,1.547-3.51,2.837-5.05,3.87c-20.76,13.947-42.19,25.38-64.29,34.3c-18.933,7.647-39.077,12.61-60.43,14.89
	c-6.667,0.713-13.243,0.34-19.73-1.12c-0.156-0.034-0.312,0.061-0.348,0.212c-0.016,0.067-0.006,0.138,0.028,0.198
	c6.473,11.847,12.907,24.583,19.3,38.21c26.807,57.153,49.573,114.89,68.3,173.21c9.62,29.973,16.957,59.017,22.01,87.13
	c2.507,13.927,3.98,27.377,4.42,40.35c0.24,7.04,0.053,14.137-0.56,21.29c-2.13,24.92-7.8,49.55-19.18,71.1
	c-13.75,26.05-35.56,46.41-61.32,60.8c-12.46,6.953-25.3,13.54-38.52,19.76c-6.507,3.06-13.02,6.887-19.54,11.48
	c-3.053,2.153-5.65,4.543-7.79,7.17c-3.65,4.48-4.04,10.42-4.25,16.21c-0.18,5.33,5.16,6.43,9.36,6.56
	c21.973,0.68,43.753,0.93,65.34,0.75c37.7-0.313,72.623-1.23,104.77-2.75c8.267-0.387,16.35-0.863,24.25-1.43
	c1.893-0.133,3.78-0.22,5.66-0.26c2.047-0.04,3.937-0.127,5.67-0.26c7.647-0.593,15.143-1.153,22.49-1.68
	c3.787-0.32,7.343-0.607,10.67-0.86c2.38-0.187,4.85-0.633,7.41-1.34c7.92-2.19,11.06-8.86,13.94-15.8
	c4.1-9.85,7.65-20.19,12.03-29.52c10.767-22.993,24.847-43.65,42.24-61.97c11.5-12.12,22.78-23.31,32.88-35.49
	c10.03-12.1,16.49-25.48,16.46-41.2c-0.033-16.56-4.137-31.787-12.31-45.68c-10.73-18.23-27.48-33.85-43.01-48.92
	c-11.04-10.71-22.84-23.52-30.64-36.82c-7.24-12.33-12.98-27.49-17.41-41c-9.813-29.94-18.953-61.66-27.42-95.16
	c-13.24-52.38-25.13-103.46-35.67-153.24c-0.767-3.593-1.457-7.1-2.07-10.52c-0.107-0.593-0.327-0.64-0.66-0.14
	C518.84,41.39,514.813,45.937,510.18,49.97z M419.77,561.97c-1.53-10.56-5.56-20.04-10.2-30.89
	c-14.3-33.44-19.07-70.04-19.49-107.27c-0.08-7.24-0.213-14.317-0.4-21.23c-0.03-1.38,0.28-2.73,0.29-4.09
	c0.007-11.8,0.213-23.307,0.62-34.52c1.613-43.853,4.853-88.07,9.72-132.65c0.167-1.513-0.03-2.97-0.59-4.37
	c-1.96-4.927-3.97-9.82-6.03-14.68c-12.6-30.887-26.463-61.2-41.59-90.94c-2.373-4.673-4.703-9.04-6.99-13.1
	c-3.733-6.647-4.797-13.693-3.19-21.14c0.066-0.325-0.143-0.642-0.468-0.708c-0.044-0.009-0.088-0.013-0.132-0.012
	c-5.72,0.173-11.857,0.363-18.41,0.57c-5.94,0.18-11.39-0.15-17.65-0.25c-13.713-0.233-31.053-1.033-52.02-2.4
	c-1.853-0.127-3.577-0.123-5.17,0.01c-0.843,0.064-1.474,0.794-1.411,1.631c0,0.003,0,0.006,0.001,0.009
	c1.6,20.533,3.127,40.72,4.58,60.56c3.56,48.527,5.15,97.583,4.77,147.17c-0.03,4.47-0.45,8.76-0.45,13.33
	c-0.02,15.413-0.4,30.55-1.14,45.41c-0.553,11.173-1.16,22.323-1.82,33.45c-0.273,4.653-0.687,9.703-1.24,15.15
	c-0.52,5.2-1,10.26-1.44,15.18c-1.45,16.31-5.62,32.49-14.01,46.64c-4.933,8.333-11.243,16.287-18.93,23.86
	c-6.307,6.213-12.187,11.267-17.64,15.16c-3.607,2.58-7.093,5.173-10.46,7.78c-12.567,9.727-24.96,19.32-37.18,28.78
	c-21.82,16.89-45.28,29.43-70.03,39.01c-10.47,4.06-21.01,8.04-31.68,11.44c-3.747,1.193-7.3,2.54-10.66,4.04
	c-10.45,4.67-19.47,13.55-20.41,25.04c-0.227,2.813-0.36,5.867-0.4,9.16c-0.047,4.233,1.96,7.097,6.02,8.59
	c3.4,1.253,6.96,2.087,10.68,2.5c14.99,1.66,29.77,1.05,44.55,0.62c7.147-0.213,13.803-0.497,19.97-0.85
	c21.133-1.227,35.72-2.1,43.76-2.62c7.27-0.47,14.94-1.35,22.51-1.79c23.92-1.393,48.09-3.213,72.51-5.46
	c2.653-0.247,5.397-0.48,8.23-0.7c25.887-2.007,51.757-4.41,77.61-7.21c1.64-0.173,3.073-0.64,4.3-1.4
	c6.96-4.3,12.173-7.283,15.64-8.95c17.27-8.3,34.17-16.35,50.01-26.78C403.683,576.877,412.17,569.85,419.77,561.97z M405.29,283.86
	c-2.933,35.553-4.723,69.757-5.37,102.61c-0.227,11.573-0.237,23.67-0.03,36.29c0.52,31.97,3.9,64.02,14.4,92.89
	c2.52,6.92,5.52,14.493,9,22.72c1.86,4.4,3.387,8.86,4.58,13.38c0.049,0.187,0.24,0.299,0.427,0.25
	c0.077-0.02,0.146-0.066,0.193-0.13c12.167-16,20.663-34.23,25.49-54.69c3.98-16.887,5.857-33.353,5.63-49.4
	c-0.23-15.76-2.64-32.72-5.66-48.3c-3.993-20.613-9.303-41.957-15.93-64.03c-8.56-28.5-18.347-56.987-29.36-85.46
	c-0.173-0.453-0.283-0.437-0.33,0.05C407.257,261.08,406.243,272.353,405.29,283.86z"/>
<path fill="#FFFFFF" d="M514.98,29.27c-3.44,5.68-8.08,10.54-13.43,15.01c-4.4,3.687-9.763,7.49-16.09,11.41
	c-10.087,6.26-20.627,12.147-31.62,17.66c-12.56,6.3-25.01,11.38-37.35,15.24c-12.62,3.947-26.07,6.797-40.35,8.55
	c-5.273,0.647-10.34,0.597-15.2-0.15c-4.29-0.66-11.17-2.64-9.12-8.71c2.11-6.28,7.2-11.62,12.29-15.68
	c2.66-2.12,5.39-4.32,8.19-6.6c1.62-1.327,3.263-2.473,4.93-3.44c2.32-1.36,4.17-3.21,6.41-4.65
	c8.293-5.313,16.47-9.927,24.53-13.84c2.413-1.173,4.697-2.383,6.85-3.63c3.2-1.85,6.62-2.88,9.92-4.41
	c13.92-6.46,28.203-11.497,42.85-15.11c12.773-3.153,25.703-4.48,38.79-3.98c2.98,0.113,5.813,0.82,8.5,2.12
	C518.52,20.74,516.35,27.03,514.98,29.27z"/>
<path fill="#9E9E9E" d="M555.82,653.99c5.133-1.593,9.083-4.2,11.85-7.82c2.553-3.347,4.493-6.89,5.82-10.63
	c13.51-38.06,37.27-73.35,64.51-104c16.25-18.27,35.58-34.68,36.6-61.47c1.17-30.8-13.72-55.01-34.67-76.44
	c-12.69-12.99-26.14-25.2-38.09-39.06c-8.94-10.37-15.76-21.41-21.06-34.16c-5.433-13.067-10.453-27.29-15.06-42.67
	c-5.727-19.12-10.847-37.46-15.36-55.02c-14.66-57.053-28.053-114.637-40.18-172.75c4.633-4.033,8.66-8.58,12.08-13.64
	c0.333-0.5,0.553-0.453,0.66,0.14c0.613,3.42,1.303,6.927,2.07,10.52c10.54,49.78,22.43,100.86,35.67,153.24
	c8.467,33.5,17.607,65.22,27.42,95.16c4.43,13.51,10.17,28.67,17.41,41c7.8,13.3,19.6,26.11,30.64,36.82
	c15.53,15.07,32.28,30.69,43.01,48.92c8.173,13.893,12.277,29.12,12.31,45.68c0.03,15.72-6.43,29.1-16.46,41.2
	c-10.1,12.18-21.38,23.37-32.88,35.49c-17.393,18.32-31.473,38.977-42.24,61.97c-4.38,9.33-7.93,19.67-12.03,29.52
	c-2.88,6.94-6.02,13.61-13.94,15.8c-2.56,0.707-5.03,1.153-7.41,1.34C563.163,653.383,559.607,653.67,555.82,653.99z"/>
<path fill="#FFFFFF" d="M510.18,49.97c12.127,58.113,25.52,115.697,40.18,172.75c4.513,17.56,9.633,35.9,15.36,55.02
	c4.607,15.38,9.627,29.603,15.06,42.67c5.3,12.75,12.12,23.79,21.06,34.16c11.95,13.86,25.4,26.07,38.09,39.06
	c20.95,21.43,35.84,45.64,34.67,76.44c-1.02,26.79-20.35,43.2-36.6,61.47c-27.24,30.65-51,65.94-64.51,104
	c-1.327,3.74-3.267,7.283-5.82,10.63c-2.767,3.62-6.717,6.227-11.85,7.82c-7.347,0.527-14.843,1.087-22.49,1.68
	c-1.733,0.133-3.623,0.22-5.67,0.26c-1.88,0.04-3.767,0.127-5.66,0.26c-7.9,0.567-15.983,1.043-24.25,1.43
	c-32.147,1.52-67.07,2.437-104.77,2.75c-21.587,0.18-43.367-0.07-65.34-0.75c-4.2-0.13-9.54-1.23-9.36-6.56
	c0.21-5.79,0.6-11.73,4.25-16.21c2.14-2.627,4.737-5.017,7.79-7.17c6.52-4.593,13.033-8.42,19.54-11.48
	c13.22-6.22,26.06-12.807,38.52-19.76c25.76-14.39,47.57-34.75,61.32-60.8c11.38-21.55,17.05-46.18,19.18-71.1
	c0.613-7.153,0.8-14.25,0.56-21.29c-0.44-12.973-1.913-26.423-4.42-40.35c-5.053-28.113-12.39-57.157-22.01-87.13
	c-18.727-58.32-41.493-116.057-68.3-173.21c-6.393-13.627-12.827-26.363-19.3-38.21c-0.077-0.135-0.025-0.306,0.115-0.381
	c0.062-0.034,0.135-0.044,0.205-0.029c6.487,1.46,13.063,1.833,19.73,1.12c21.353-2.28,41.497-7.243,60.43-14.89
	c22.1-8.92,43.53-20.353,64.29-34.3c1.54-1.033,3.223-2.323,5.05-3.87C506.817,52.66,508.467,51.317,510.18,49.97z"/>
<path fill="#FFFFFF" d="M393.69,212.27c-0.313,3.18-0.7,6.33-1.16,9.45c-2.6,17.507-5.147,35.02-7.64,52.54
	c-6.99,49.15-10.51,99.82-6.97,148.6c3.53,48.45,14.42,98.34,41.85,139.11c-7.6,7.88-16.087,14.907-25.46,21.08
	c-15.84,10.43-32.74,18.48-50.01,26.78c-3.467,1.667-8.68,4.65-15.64,8.95c-1.227,0.76-2.66,1.227-4.3,1.4
	c-25.853,2.8-51.723,5.203-77.61,7.21c-2.833,0.22-5.577,0.453-8.23,0.7c-24.42,2.247-48.59,4.067-72.51,5.46
	c-7.57,0.44-15.24,1.32-22.51,1.79c-8.04,0.52-22.627,1.393-43.76,2.62c-6.167,0.353-12.823,0.637-19.97,0.85
	c-14.78,0.43-29.56,1.04-44.55-0.62c-3.72-0.413-7.28-1.247-10.68-2.5c-4.06-1.493-6.067-4.357-6.02-8.59
	c0.04-3.293,0.173-6.347,0.4-9.16c0.94-11.49,9.96-20.37,20.41-25.04c3.36-1.5,6.913-2.847,10.66-4.04
	c10.67-3.4,21.21-7.38,31.68-11.44c24.75-9.58,48.21-22.12,70.03-39.01c12.22-9.46,24.613-19.053,37.18-28.78
	c3.367-2.607,6.853-5.2,10.46-7.78c5.453-3.893,11.333-8.947,17.64-15.16c7.687-7.573,13.997-15.527,18.93-23.86
	c8.39-14.15,12.56-30.33,14.01-46.64c0.44-4.92,0.92-9.98,1.44-15.18c0.553-5.447,0.967-10.497,1.24-15.15
	c0.66-11.127,1.267-22.277,1.82-33.45c0.74-14.86,1.12-29.997,1.14-45.41c0-4.57,0.42-8.86,0.45-13.33
	c0.38-49.587-1.21-98.643-4.77-147.17c-1.453-19.84-2.98-40.027-4.58-60.56c-0.068-0.837,0.559-1.571,1.401-1.639
	c0.003,0,0.006,0,0.009-0.001c1.593-0.133,3.317-0.137,5.17-0.01c20.967,1.367,38.307,2.167,52.02,2.4
	c6.26,0.1,11.71,0.43,17.65,0.25c6.553-0.207,12.69-0.397,18.41-0.57c0.331-0.007,0.605,0.256,0.612,0.588
	c0.001,0.044-0.003,0.089-0.012,0.132c-1.607,7.447-0.543,14.493,3.19,21.14c2.287,4.06,4.617,8.427,6.99,13.1
	C367.227,151.07,381.09,181.383,393.69,212.27z"/>
<path fill="#9E9E9E" d="M393.69,212.27c2.06,4.86,4.07,9.753,6.03,14.68c0.56,1.4,0.757,2.857,0.59,4.37
	c-4.867,44.58-8.107,88.797-9.72,132.65c-0.407,11.213-0.613,22.72-0.62,34.52c-0.01,1.36-0.32,2.71-0.29,4.09
	c0.187,6.913,0.32,13.99,0.4,21.23c0.42,37.23,5.19,73.83,19.49,107.27c4.64,10.85,8.67,20.33,10.2,30.89
	c-27.43-40.77-38.32-90.66-41.85-139.11c-3.54-48.78-0.02-99.45,6.97-148.6c2.493-17.52,5.04-35.033,7.64-52.54
	C392.99,218.6,393.377,215.45,393.69,212.27z"/>
</svg>
