<?xml version="1.0" encoding="utf-8"?>
<!-- Generator: Adobe Illustrator 25.0.0, SVG Export Plug-In . SVG Version: 6.00 Build 0)  -->
<svg version="1.1" id="Layer_1" xmlns="http://www.w3.org/2000/svg" xmlns:xlink="http://www.w3.org/1999/xlink" x="0px" y="0px"
	 viewBox="0 0 713 679" style="enable-background:new 0 0 713 679;" xml:space="preserve">
<style type="text/css">
	.st0{fill:#777777;}
	.st1{fill:#FFFFFF;}
</style>
<path class="st0" d="M313.4,631.4c-66.5,6.5-133.5,11.8-201.1,15.8c-14.6,0.9-29.7,1.6-45.2,2c-9.5,0.3-19.2,0.1-28.9-0.7
	c-6.5-0.5-12.4-1.8-17.7-3.9c-7.7-3-11.6-8.7-11.8-17c-0.1-5.4,0.2-10.2,1-14.2c2.4-12.7,11.6-22.5,23-28.4c3.9-2,9.1-4.1,15.6-6.2
	c27.6-8.9,55.2-19.8,78.9-35.3C148,529.9,167,513,187.6,498c9.4-6.9,17.6-13.6,25.8-22.1c15.3-15.8,24.1-35.1,26.4-58.1
	c1.7-16.7,2.8-30.1,3.4-40.3c2.6-45.5,3.5-89.2,2.6-131.1c-1-50.9-4.1-99.1-8.6-152.1c-0.3-3-0.4-6-0.4-8.9
	c0-7.1,5.6-11.5,12.5-11.1c18.8,1.1,37.8,2,56.9,2.6c13.5,0.4,27,0.2,40.5-0.8c0.2,0,0.4-0.1,0.5-0.2c3.4-4.3,7.2-8.2,11.5-11.8
	c6.1-5.1,11.7-9.3,16.8-12.7c11.8-7.9,25-15.2,39.4-22c26.7-12.6,55-21.8,84.2-22.7c3.5-0.1,6.9,0.2,10.3,0.6
	c10.9,1.2,19.1,7.1,21.3,18.1c13.5,66.4,28.9,132.4,46.2,197.8c5,19,10.6,38.2,16.7,57.5c4.2,13.2,8.7,25.6,13.7,37.2
	c6.3,14.7,15,26.8,26.1,38.2c6.8,7,13.8,14,21.1,21.1c12.7,12.3,24.7,25.4,33.6,40.5c7.8,13.3,12.2,28.3,13.2,45.1
	c1,16.3-3.2,31.1-12.5,44.5c-3.6,5.2-7.5,10.1-11.5,14.5c-13.3,14.7-27.8,28.5-40.2,43.8c-14.7,18.1-26.4,38.7-34.6,60.7
	c-2,5.4-4.1,10.7-6.4,15.8c-3.1,7.2-7,13.6-14,17.1c-4.4,2.2-9.4,3.3-14.2,3.8c-20.3,2-41.9,3.5-64.8,4.5
	c-34,1.5-67.5,2.5-100.5,2.9c-0.5,0-1.1,0-1.6,0c-14.8,0-29.7,0-44.5,0c-1.2,0-2.2-0.3-3.4-0.3c-6.3,0-13.2-0.1-20.6-0.3
	c-3.2-0.1-6.3-0.2-9.1-0.5c-8-0.8-15.1-6.9-15.1-15.3c-0.1-9.3,1.8-16.6,5.5-21.9C314,631.5,313.9,631.3,313.4,631.4z M501.5,44.3
	c5.4-4.5,10-9.3,13.4-15c1.4-2.2,3.5-8.5,0.1-10.2c-2.7-1.3-5.5-2-8.5-2.1c-13.1-0.5-26,0.8-38.8,4c-14.6,3.6-28.9,8.6-42.9,15.1
	c-3.3,1.5-6.7,2.6-9.9,4.4c-2.2,1.2-4.4,2.5-6.9,3.6c-8.1,3.9-16.2,8.5-24.5,13.8c-2.2,1.4-4.1,3.3-6.4,4.7c-1.7,1-3.3,2.1-4.9,3.4
	c-2.8,2.3-5.5,4.5-8.2,6.6c-5.1,4.1-10.2,9.4-12.3,15.7c-2,6.1,4.8,8.1,9.1,8.7c4.9,0.7,9.9,0.8,15.2,0.2
	c14.3-1.8,27.7-4.6,40.4-8.6c12.3-3.9,24.8-8.9,37.4-15.2c11-5.5,21.5-11.4,31.6-17.7C491.8,51.8,497.1,48,501.5,44.3z M510.2,50
	c-1.7,1.3-3.4,2.7-5,4c-1.8,1.5-3.5,2.8-5,3.9c-20.8,13.9-42.2,25.4-64.3,34.3c-18.9,7.6-39.1,12.6-60.4,14.9
	c-6.7,0.7-13.2,0.3-19.7-1.1c-0.2,0-0.3,0.1-0.3,0.2c0,0.1,0,0.1,0,0.2c6.5,11.8,12.9,24.6,19.3,38.2
	c26.8,57.2,49.6,114.9,68.3,173.2c9.6,30,17,59,22,87.1c2.5,13.9,4,27.4,4.4,40.4c0.2,7,0.1,14.1-0.6,21.3
	c-2.1,24.9-7.8,49.5-19.2,71.1c-13.8,26-35.6,46.4-61.3,60.8c-12.5,7-25.3,13.5-38.5,19.8c-6.5,3.1-13,6.9-19.5,11.5
	c-3.1,2.2-5.6,4.5-7.8,7.2c-3.6,4.5-4,10.4-4.2,16.2c-0.2,5.3,5.2,6.4,9.4,6.6c22,0.7,43.8,0.9,65.3,0.8
	c37.7-0.3,72.6-1.2,104.8-2.8c8.3-0.4,16.3-0.9,24.2-1.4c1.9-0.1,3.8-0.2,5.7-0.3c2,0,3.9-0.1,5.7-0.3c7.6-0.6,15.1-1.2,22.5-1.7
	c3.8-0.3,7.3-0.6,10.7-0.9c2.4-0.2,4.8-0.6,7.4-1.3c7.9-2.2,11.1-8.9,13.9-15.8c4.1-9.8,7.7-20.2,12-29.5c10.8-23,24.8-43.7,42.2-62
	c11.5-12.1,22.8-23.3,32.9-35.5c10-12.1,16.5-25.5,16.5-41.2c0-16.6-4.1-31.8-12.3-45.7c-10.7-18.2-27.5-33.9-43-48.9
	c-11-10.7-22.8-23.5-30.6-36.8c-7.2-12.3-13-27.5-17.4-41c-9.8-29.9-19-61.7-27.4-95.2C547.4,147.9,535.5,96.8,525,47
	c-0.8-3.6-1.5-7.1-2.1-10.5c-0.1-0.6-0.3-0.6-0.7-0.1C518.8,41.4,514.8,45.9,510.2,50z M419.8,562c-1.5-10.6-5.6-20-10.2-30.9
	c-14.3-33.4-19.1-70-19.5-107.3c-0.1-7.2-0.2-14.3-0.4-21.2c0-1.4,0.3-2.7,0.3-4.1c0-11.8,0.2-23.3,0.6-34.5
	c1.6-43.9,4.9-88.1,9.7-132.6c0.2-1.5,0-3-0.6-4.4c-2-4.9-4-9.8-6-14.7c-12.6-30.9-26.5-61.2-41.6-90.9c-2.4-4.7-4.7-9-7-13.1
	c-3.7-6.6-4.8-13.7-3.2-21.1c0.1-0.3-0.1-0.6-0.5-0.7c0,0-0.1,0-0.1,0c-5.7,0.2-11.9,0.4-18.4,0.6c-5.9,0.2-11.4-0.2-17.6-0.2
	c-13.7-0.2-31.1-1-52-2.4c-1.9-0.1-3.6-0.1-5.2,0c-0.8,0.1-1.5,0.8-1.4,1.6c0,0,0,0,0,0c1.6,20.5,3.1,40.7,4.6,60.6
	c3.6,48.5,5.1,97.6,4.8,147.2c0,4.5-0.4,8.8-0.4,13.3c0,15.4-0.4,30.5-1.1,45.4c-0.6,11.2-1.2,22.3-1.8,33.5
	c-0.3,4.7-0.7,9.7-1.2,15.1c-0.5,5.2-1,10.3-1.4,15.2c-1.4,16.3-5.6,32.5-14,46.6c-4.9,8.3-11.2,16.3-18.9,23.9
	c-6.3,6.2-12.2,11.3-17.6,15.2c-3.6,2.6-7.1,5.2-10.5,7.8c-12.6,9.7-25,19.3-37.2,28.8c-21.8,16.9-45.3,29.4-70,39
	c-10.5,4.1-21,8-31.7,11.4c-3.7,1.2-7.3,2.5-10.7,4c-10.5,4.7-19.5,13.5-20.4,25c-0.2,2.8-0.4,5.9-0.4,9.2c0,4.2,2,7.1,6,8.6
	c3.4,1.3,7,2.1,10.7,2.5c15,1.7,29.8,1,44.6,0.6c7.1-0.2,13.8-0.5,20-0.8c21.1-1.2,35.7-2.1,43.8-2.6c7.3-0.5,14.9-1.3,22.5-1.8
	c23.9-1.4,48.1-3.2,72.5-5.5c2.7-0.2,5.4-0.5,8.2-0.7c25.9-2,51.8-4.4,77.6-7.2c1.6-0.2,3.1-0.6,4.3-1.4c7-4.3,12.2-7.3,15.6-9
	c17.3-8.3,34.2-16.3,50-26.8C403.7,576.9,412.2,569.8,419.8,562z M405.3,283.9c-2.9,35.6-4.7,69.8-5.4,102.6
	c-0.2,11.6-0.2,23.7,0,36.3c0.5,32,3.9,64,14.4,92.9c2.5,6.9,5.5,14.5,9,22.7c1.9,4.4,3.4,8.9,4.6,13.4c0,0.2,0.2,0.3,0.4,0.2
	c0.1,0,0.1-0.1,0.2-0.1c12.2-16,20.7-34.2,25.5-54.7c4-16.9,5.9-33.4,5.6-49.4c-0.2-15.8-2.6-32.7-5.7-48.3c-4-20.6-9.3-42-15.9-64
	c-8.6-28.5-18.3-57-29.4-85.5c-0.2-0.5-0.3-0.4-0.3,0.1C407.3,261.1,406.2,272.4,405.3,283.9z"/>
<path class="st1" d="M515,29.3c-3.4,5.7-8.1,10.5-13.4,15c-4.4,3.7-9.8,7.5-16.1,11.4c-10.1,6.3-20.6,12.1-31.6,17.7
	c-12.6,6.3-25,11.4-37.4,15.2c-12.6,3.9-26.1,6.8-40.4,8.6c-5.3,0.6-10.3,0.6-15.2-0.2c-4.3-0.7-11.2-2.6-9.1-8.7
	c2.1-6.3,7.2-11.6,12.3-15.7c2.7-2.1,5.4-4.3,8.2-6.6c1.6-1.3,3.3-2.5,4.9-3.4c2.3-1.4,4.2-3.2,6.4-4.7c8.3-5.3,16.5-9.9,24.5-13.8
	c2.4-1.2,4.7-2.4,6.9-3.6c3.2-1.8,6.6-2.9,9.9-4.4c13.9-6.5,28.2-11.5,42.9-15.1c12.8-3.2,25.7-4.5,38.8-4c3,0.1,5.8,0.8,8.5,2.1
	C518.5,20.7,516.3,27,515,29.3z"/>
<path class="st0" d="M555.8,654c5.1-1.6,9.1-4.2,11.8-7.8c2.6-3.3,4.5-6.9,5.8-10.6c13.5-38.1,37.3-73.3,64.5-104
	c16.2-18.3,35.6-34.7,36.6-61.5c1.2-30.8-13.7-55-34.7-76.4c-12.7-13-26.1-25.2-38.1-39.1c-8.9-10.4-15.8-21.4-21.1-34.2
	c-5.4-13.1-10.5-27.3-15.1-42.7c-5.7-19.1-10.8-37.5-15.4-55c-14.7-57.1-28.1-114.6-40.2-172.8c4.6-4,8.7-8.6,12.1-13.6
	c0.3-0.5,0.6-0.5,0.7,0.1c0.6,3.4,1.3,6.9,2.1,10.5c10.5,49.8,22.4,100.9,35.7,153.2c8.5,33.5,17.6,65.2,27.4,95.2
	c4.4,13.5,10.2,28.7,17.4,41c7.8,13.3,19.6,26.1,30.6,36.8c15.5,15.1,32.3,30.7,43,48.9c8.2,13.9,12.3,29.1,12.3,45.7
	c0,15.7-6.4,29.1-16.5,41.2c-10.1,12.2-21.4,23.4-32.9,35.5c-17.4,18.3-31.5,39-42.2,62c-4.4,9.3-7.9,19.7-12,29.5
	c-2.9,6.9-6,13.6-13.9,15.8c-2.6,0.7-5,1.2-7.4,1.3C563.2,653.4,559.6,653.7,555.8,654z"/>
<path class="st1" d="M510.2,50c12.1,58.1,25.5,115.7,40.2,172.8c4.5,17.6,9.6,35.9,15.4,55c4.6,15.4,9.6,29.6,15.1,42.7
	c5.3,12.8,12.1,23.8,21.1,34.2c12,13.9,25.4,26.1,38.1,39.1c21,21.4,35.8,45.6,34.7,76.4c-1,26.8-20.3,43.2-36.6,61.5
	c-27.2,30.7-51,65.9-64.5,104c-1.3,3.7-3.3,7.3-5.8,10.6c-2.8,3.6-6.7,6.2-11.8,7.8c-7.3,0.5-14.8,1.1-22.5,1.7
	c-1.7,0.1-3.6,0.2-5.7,0.3c-1.9,0-3.8,0.1-5.7,0.3c-7.9,0.6-16,1-24.2,1.4c-32.1,1.5-67.1,2.4-104.8,2.8
	c-21.6,0.2-43.4-0.1-65.3-0.8c-4.2-0.1-9.5-1.2-9.4-6.6c0.2-5.8,0.6-11.7,4.2-16.2c2.1-2.6,4.7-5,7.8-7.2c6.5-4.6,13-8.4,19.5-11.5
	c13.2-6.2,26.1-12.8,38.5-19.8c25.8-14.4,47.6-34.8,61.3-60.8c11.4-21.5,17-46.2,19.2-71.1c0.6-7.2,0.8-14.2,0.6-21.3
	c-0.4-13-1.9-26.4-4.4-40.4c-5.1-28.1-12.4-57.2-22-87.1c-18.7-58.3-41.5-116.1-68.3-173.2c-6.4-13.6-12.8-26.4-19.3-38.2
	c-0.1-0.1,0-0.3,0.1-0.4c0.1,0,0.1,0,0.2,0c6.5,1.5,13.1,1.8,19.7,1.1c21.4-2.3,41.5-7.2,60.4-14.9c22.1-8.9,43.5-20.4,64.3-34.3
	c1.5-1,3.2-2.3,5-3.9C506.8,52.7,508.5,51.3,510.2,50z"/>
<path class="st1" d="M393.7,212.3c-0.3,3.2-0.7,6.3-1.2,9.4c-2.6,17.5-5.1,35-7.6,52.5c-7,49.1-10.5,99.8-7,148.6
	c3.5,48.5,14.4,98.3,41.9,139.1c-7.6,7.9-16.1,14.9-25.5,21.1c-15.8,10.4-32.7,18.5-50,26.8c-3.5,1.7-8.7,4.7-15.6,9
	c-1.2,0.8-2.7,1.2-4.3,1.4c-25.9,2.8-51.7,5.2-77.6,7.2c-2.8,0.2-5.6,0.5-8.2,0.7c-24.4,2.2-48.6,4.1-72.5,5.5
	c-7.6,0.4-15.2,1.3-22.5,1.8c-8,0.5-22.6,1.4-43.8,2.6c-6.2,0.4-12.8,0.6-20,0.8c-14.8,0.4-29.6,1-44.5-0.6
	c-3.7-0.4-7.3-1.2-10.7-2.5c-4.1-1.5-6.1-4.4-6-8.6c0-3.3,0.2-6.3,0.4-9.2c0.9-11.5,10-20.4,20.4-25c3.4-1.5,6.9-2.8,10.7-4
	c10.7-3.4,21.2-7.4,31.7-11.4c24.8-9.6,48.2-22.1,70-39c12.2-9.5,24.6-19.1,37.2-28.8c3.4-2.6,6.9-5.2,10.5-7.8
	c5.5-3.9,11.3-8.9,17.6-15.2c7.7-7.6,14-15.5,18.9-23.9c8.4-14.1,12.6-30.3,14-46.6c0.4-4.9,0.9-10,1.4-15.2
	c0.6-5.4,1-10.5,1.2-15.1c0.7-11.1,1.3-22.3,1.8-33.5c0.7-14.9,1.1-30,1.1-45.4c0-4.6,0.4-8.9,0.4-13.3c0.4-49.6-1.2-98.6-4.8-147.2
	c-1.5-19.8-3-40-4.6-60.6c-0.1-0.8,0.6-1.6,1.4-1.6c0,0,0,0,0,0c1.6-0.1,3.3-0.1,5.2,0c21,1.4,38.3,2.2,52,2.4
	c6.3,0.1,11.7,0.4,17.6,0.2c6.6-0.2,12.7-0.4,18.4-0.6c0.3,0,0.6,0.3,0.6,0.6c0,0,0,0.1,0,0.1c-1.6,7.4-0.5,14.5,3.2,21.1
	c2.3,4.1,4.6,8.4,7,13.1C367.2,151.1,381.1,181.4,393.7,212.3z"/>
<path class="st0" d="M393.7,212.3c2.1,4.9,4.1,9.8,6,14.7c0.6,1.4,0.8,2.9,0.6,4.4c-4.9,44.6-8.1,88.8-9.7,132.6
	c-0.4,11.2-0.6,22.7-0.6,34.5c0,1.4-0.3,2.7-0.3,4.1c0.2,6.9,0.3,14,0.4,21.2c0.4,37.2,5.2,73.8,19.5,107.3
	c4.6,10.8,8.7,20.3,10.2,30.9c-27.4-40.8-38.3-90.7-41.9-139.1c-3.5-48.8,0-99.5,7-148.6c2.5-17.5,5-35,7.6-52.5
	C393,218.6,393.4,215.4,393.7,212.3z"/>
</svg>
