<?xml version="1.0" encoding="utf-8"?>
<!-- Generator: Adobe Illustrator 25.0.0, SVG Export Plug-In . SVG Version: 6.00 Build 0)  -->
<svg version="1.1" id="Layer_1" xmlns="http://www.w3.org/2000/svg" xmlns:xlink="http://www.w3.org/1999/xlink" x="0px" y="0px"
	 viewBox="0 0 1300 1042" enable-background="new 0 0 1300 1042" xml:space="preserve">
<g>
	<path vector-effect="non-scaling-stroke" fill="none" stroke="#96D4EF" stroke-width="2" d="M105.76,263.43
		c-0.207-0.06-0.46-0.087-0.76-0.08c-13.613,0.113-27.227,0.163-40.84,0.15c-6.293,0-10.72,0.257-13.28,0.77
		c-16.09,3.25-27.98,16.92-30.33,32.71c-0.52,3.52-0.303,9.93,0.65,19.23c22.32,218.013,44.4,435.067,66.24,651.16
		c1.087,10.733,1.9,17.15,2.44,19.25c3.41,13.32,13.89,24.09,27.27,27.96c3.24,0.94,8.19,1.427,14.85,1.46
		c8.327,0.04,16.743,0.06,25.25,0.06c339.32,0.013,676.57,0,1011.75-0.04c5.48,0,11.69,0.25,16.65-0.72
		c13-2.54,23.82-11.54,28.84-23.83c1.367-3.333,2.313-7.613,2.84-12.84c22.813-224.313,45.377-446.21,67.69-665.69
		c0.753-7.36,0.897-12.69,0.43-15.99c-2.62-18.48-18.6-33.57-37.95-33.52c-15.74,0.04-31.483,0.057-47.23,0.05"/>
	<path vector-effect="non-scaling-stroke" fill="none" stroke="#92C5D8" stroke-width="2" d="M1200.27,263.52
		c0.007-65.92,0.01-131.763,0.01-197.53c0-9.773-0.38-16.167-1.14-19.18c-4.2-16.74-18.83-28.84-36.21-28.83
		c-100.607,0.073-201.283,0.05-302.03-0.07c-4.167-0.007-7.89,0.373-11.17,1.14c-9.5,2.21-16.09,7.57-22.72,15.75
		c-28.64,35.367-56.207,69.303-82.7,101.81c-6.067,7.447-12.717,12.16-19.95,14.14c-3.667,1.007-8.143,1.51-13.43,1.51
		c-189.873-0.033-379.437-0.017-568.69,0.05c-16.59,0-30.64,12.14-35.11,27.7c-0.92,3.2-1.383,9.233-1.39,18.1
		c-0.02,21.653-0.013,43.427,0.02,65.32"/>
	<path vector-effect="non-scaling-stroke" fill="none" stroke="#289AC8" stroke-width="2" d="M1200.27,263.52l-1094.51-0.09"/>
</g>
<path fill="#248AB0" d="M1200.27,263.52l-1094.51-0.09c-0.033-21.893-0.04-43.667-0.02-65.32c0.007-8.867,0.47-14.9,1.39-18.1
	c4.47-15.56,18.52-27.7,35.11-27.7c189.253-0.067,378.817-0.083,568.69-0.05c5.287,0,9.763-0.503,13.43-1.51
	c7.233-1.98,13.883-6.693,19.95-14.14c26.493-32.507,54.06-66.443,82.7-101.81c6.63-8.18,13.22-13.54,22.72-15.75
	c3.28-0.767,7.003-1.147,11.17-1.14c100.747,0.12,201.423,0.143,302.03,0.07c17.38-0.01,32.01,12.09,36.21,28.83
	c0.76,3.013,1.14,9.407,1.14,19.18C1200.28,131.757,1200.277,197.6,1200.27,263.52z"/>
<path fill="#2CA9DF" d="M105.76,263.43l1094.51,0.09c15.747,0.007,31.49-0.01,47.23-0.05c19.35-0.05,35.33,15.04,37.95,33.52
	c0.467,3.3,0.323,8.63-0.43,15.99c-22.313,219.48-44.877,441.377-67.69,665.69c-0.527,5.227-1.473,9.507-2.84,12.84
	c-5.02,12.29-15.84,21.29-28.84,23.83c-4.96,0.97-11.17,0.72-16.65,0.72c-335.18,0.04-672.43,0.053-1011.75,0.04
	c-8.507,0-16.923-0.02-25.25-0.06c-6.66-0.033-11.61-0.52-14.85-1.46c-13.38-3.87-23.86-14.64-27.27-27.96
	c-0.54-2.1-1.353-8.517-2.44-19.25C65.6,751.277,43.52,534.223,21.2,316.21c-0.953-9.3-1.17-15.71-0.65-19.23
	c2.35-15.79,14.24-29.46,30.33-32.71c2.56-0.513,6.987-0.77,13.28-0.77c13.613,0.013,27.227-0.037,40.84-0.15
	C105.3,263.343,105.553,263.37,105.76,263.43z"/>
</svg>
